<?xml version="1.0" encoding="UTF-8"?>
<svg width="93px" height="40px" viewBox="0 0 93 40" version="1.1" xmlns="http://www.w3.org/2000/svg" xmlns:xlink="http://www.w3.org/1999/xlink">
    <!-- Generator: Sketch 52.6 (67491) - http://www.bohemiancoding.com/sketch -->
    <title>OUTLINE-V2-white</title>
    <desc>Created with Sketch.</desc>
    <g id="Page-1" stroke="none" stroke-width="1" fill="none" fill-rule="evenodd">
        <g id="OUTLINE-V2-white" fill="#FFFFFF">
            <path d="M10.1195791,36.5178571 C7.83959319,35.8747842 6.21731987,34.851729 5.25271046,33.4486607 C4.28810104,32.0455925 3.80580357,30.3443978 3.80580357,28.3450255 L3.80580357,24.7847577 C3.80580357,23.6272264 3.55150127,22.7269377 3.04288903,22.0838648 C2.53427679,21.4407919 1.74798576,21.1192602 0.683992347,21.1192602 L0.683992347,17.5940689 C1.74798576,17.5940689 2.53427679,17.2754602 3.04288903,16.6382334 C3.55150127,16.0010066 3.80580357,15.0919489 3.80580357,13.9110332 L3.80580357,10.3507653 C3.80580357,8.35139306 4.28810104,6.65312136 5.25271046,5.25589923 C6.21731987,3.85867711 7.83959319,2.83854488 10.1195791,2.19547194 L11.1017219,4.94897959 C10.0961897,5.31143889 9.39174309,5.9574252 8.98836097,6.88695791 C8.58497885,7.81649062 8.38329082,8.97108154 8.38329082,10.3507653 L8.38329082,13.9110332 C8.38329082,15.1270256 8.12021947,16.2056182 7.59406888,17.1468431 C7.06791829,18.0880681 6.27870424,18.8217448 5.22640306,19.3478954 C6.27870424,19.8974305 7.06791829,20.6427993 7.59406888,21.5840242 C8.12021947,22.5252492 8.38329082,23.5921496 8.38329082,24.7847577 L8.38329082,28.3450255 C8.38329082,29.7247093 8.58497885,30.8793002 8.98836097,31.8088329 C9.39174309,32.7383656 10.0961897,33.3843519 11.1017219,33.7468112 L10.1195791,36.5178571 Z M82.0966199,33.7468112 C83.0787677,33.3843519 83.7744452,32.7383656 84.1836735,31.8088329 C84.5929017,30.8793002 84.7975128,29.7247093 84.7975128,28.3450255 L84.7975128,24.7847577 C84.7975128,23.5687652 85.0664301,22.4930957 85.604273,21.5577168 C86.1421158,20.622338 86.96056,19.8915843 88.0596301,19.3654337 C86.96056,18.8392831 86.1421158,18.1056063 85.604273,17.1643814 C85.0664301,16.2231564 84.7975128,15.1387179 84.7975128,13.9110332 L84.7975128,10.3507653 C84.7975128,8.97108154 84.5929017,7.81649062 84.1836735,6.88695791 C83.7744452,5.9574252 83.0787677,5.31143889 82.0966199,4.94897959 L83.0787628,2.19547194 C85.3470564,2.83854488 86.9664067,3.85867711 87.9368622,5.25589923 C88.9073178,6.65312136 89.3925383,8.35139306 89.3925383,10.3507653 L89.3925383,13.9110332 C89.3925383,15.0919489 89.6439176,16.0010066 90.1466837,16.6382334 C90.6494498,17.2754602 91.4328178,17.5940689 92.4968112,17.5940689 L92.4968112,21.1192602 C91.4328178,21.1192602 90.6494498,21.4407919 90.1466837,22.0838648 C89.6439176,22.7269377 89.3925383,23.6272264 89.3925383,24.7847577 L89.3925383,28.3450255 C89.3925383,30.3443978 88.9073178,32.0455925 87.9368622,33.4486607 C86.9664067,34.851729 85.3470564,35.8747842 83.0787628,36.5178571 L82.0966199,33.7468112 Z" id="{-}"></path>
            <path d="M24.9869388,14.7657143 L24.9869388,3.19836735 C24.9869388,1.75510204 24.9444898,1.05469388 24.7959184,0.0783673469 C25.644898,0.120816327 26.1755102,0.142040816 27.9371429,0.142040816 L32.3730612,0.142040816 C34.9836735,0.142040816 37.084898,0.863673469 38.5069388,2.24326531 C40.0563265,3.77142857 40.8416327,6 40.8416327,8.82285714 C40.8416327,11.7306122 39.9926531,14.0653061 38.3795918,15.6783673 C36.957551,17.0791837 34.9412245,17.8008163 32.4155102,17.8008163 L27.9371429,17.8008163 C26.3028571,17.8008163 25.7085714,17.8220408 24.8171429,17.8644898 C24.9444898,16.9306122 24.9869388,16.2302041 24.9869388,14.7657143 Z M29.1893878,14.0865306 L32.0334694,14.0865306 C33.4130612,14.0865306 34.3893878,13.7257143 35.1534694,12.9616327 C36.0236735,12.0702041 36.4906122,10.6481633 36.4906122,8.88653061 C36.4906122,7.08244898 36.0873469,5.76653061 35.2595918,4.93877551 C34.5167347,4.19591837 33.4979592,3.85632653 31.9697959,3.85632653 L29.1893878,3.85632653 L29.1893878,14.0865306 Z M55.677551,12.5159184 L46.1265306,12.5159184 C46.3387755,14.235102 47.3363265,15.1477551 49.0130612,15.1477551 C49.8620408,15.1477551 50.604898,14.8718367 51.1567347,14.362449 C51.475102,14.0653061 51.6236735,13.8318367 51.7934694,13.28 L55.4865306,14.32 C54.9983673,15.4236735 54.68,15.9118367 54.0857143,16.5061224 C52.8759184,17.6946939 51.1779592,18.3102041 49.0767347,18.3102041 C46.9967347,18.3102041 45.362449,17.7159184 44.1526531,16.5061224 C42.9004082,15.2326531 42.2212245,13.4285714 42.2212245,11.3273469 C42.2212245,7.12489796 44.9167347,4.3444898 48.9706122,4.3444898 C52.2816327,4.3444898 54.595102,6.14857143 55.3379592,9.31102041 C55.5077551,9.99020408 55.5926531,10.8816327 55.6563265,12.0914286 C55.6563265,12.1763265 55.6563265,12.3036735 55.677551,12.5159184 Z M46.1902041,9.58693878 L51.644898,9.58693878 C51.3477551,8.22857143 50.435102,7.50693878 48.9706122,7.50693878 C47.4636735,7.50693878 46.5510204,8.18612245 46.1902041,9.58693878 Z M56.3991837,4.85387755 L61.1110204,4.85387755 C61.1534694,5.36326531 61.2595918,5.80897959 61.5142857,6.67918367 L63.4881633,13.28 C63.5093878,13.322449 63.5306122,13.4073469 63.5730612,13.5134694 C63.6367347,13.7257143 63.6367347,13.7469388 63.7428571,14.1077551 C63.8065306,13.9167347 63.8277551,13.8106122 63.8489796,13.7257143 C63.8702041,13.6832653 63.8914286,13.6195918 63.9126531,13.5134694 C63.955102,13.4073469 63.9763265,13.322449 63.997551,13.2587755 L65.9714286,6.67918367 C66.204898,5.89387755 66.3322449,5.32081633 66.3746939,4.85387755 L71.0865306,4.85387755 C70.6620408,5.80897959 70.4922449,6.2122449 70.2163265,6.91265306 L66.6506122,16.0179592 C66.2897959,16.9306122 66.1836735,17.2702041 66.077551,17.8008163 L61.4293878,17.8008163 C61.3232653,17.2702041 61.2171429,16.9306122 60.8563265,16.0179592 L57.2906122,6.91265306 C57.1632653,6.6155102 56.8661224,5.93632653 56.3991837,4.85387755 Z M34.2514286,26.6726531 L29.8791837,27.5216327 C29.4759184,25.5902041 28.3510204,24.635102 26.5257143,24.635102 C23.9363265,24.635102 22.4293878,26.6726531 22.4293878,30.1746939 C22.4293878,33.6342857 24,35.7355102 26.6318367,35.7355102 C27.7991837,35.7355102 28.7967347,35.2473469 29.4122449,34.3983673 C29.7730612,33.8889796 29.9216327,33.4644898 30.0489796,32.5730612 L34.4636735,33.2310204 C34.0604082,35.035102 33.5934694,36.075102 32.7020408,37.115102 C31.3861224,38.6220408 29.3273469,39.4285714 26.7591837,39.4285714 C24.1697959,39.4285714 21.9836735,38.6220408 20.4767347,37.0938776 C18.9061224,35.5020408 18.0146939,33.0187755 18.0146939,30.1746939 C18.0146939,27.2881633 18.9061224,24.8473469 20.5828571,23.1918367 C22.0473469,21.7697959 24.1910204,20.9844898 26.6742857,20.9844898 C29.4122449,20.9844898 31.5559184,21.9183673 32.9355102,23.764898 C33.6146939,24.635102 33.9755102,25.4204082 34.2514286,26.6726531 Z M42.72,39.5134694 C38.4538776,39.5134694 35.7371429,36.7967347 35.7371429,32.5306122 C35.7371429,28.2857143 38.4538776,25.5902041 42.7412245,25.5902041 C47.0285714,25.5902041 49.7453061,28.2857143 49.7453061,32.4881633 C49.7453061,36.7118367 46.9436735,39.5134694 42.72,39.5134694 Z M42.762449,28.7738776 C40.8946939,28.7738776 39.7910204,30.1746939 39.7910204,32.5093878 C39.7910204,34.8653061 40.8946939,36.2873469 42.7412245,36.2873469 C44.5877551,36.2873469 45.6489796,34.9077551 45.6489796,32.5518367 C45.6489796,30.1746939 44.5665306,28.7738776 42.762449,28.7738776 Z M55.8579592,39.0253061 L51.4644898,39.0253061 C51.5918367,38.0277551 51.6342857,37.1363265 51.6342857,35.8204082 L51.6342857,29.2832653 C51.6342857,27.8187755 51.5918367,26.9273469 51.4644898,26.0783673 L55.6881633,26.0783673 L55.6881633,26.9697959 C55.6881633,27.0971429 55.6669388,27.4155102 55.6669388,27.5640816 C57.0040816,26.2906122 58.2987755,25.76 60.0391837,25.76 C61.5036735,25.76 62.6710204,26.1632653 63.4563265,26.9485714 C64.3053061,27.797551 64.6661224,28.837551 64.6661224,30.5142857 L64.6661224,35.8416327 C64.6661224,37.0726531 64.7297959,38.1338776 64.8359184,39.0253061 L60.4212245,39.0253061 C60.5485714,38.0065306 60.5910204,37.115102 60.5910204,35.8204082 L60.5910204,31.4693878 C60.5910204,30.6204082 60.5061224,30.2595918 60.2514286,29.8987755 C59.9755102,29.5167347 59.4873469,29.3044898 58.8506122,29.3044898 C57.6620408,29.3044898 56.6008163,30.0473469 55.6881633,31.5330612 L55.6881633,35.8204082 C55.6881633,37.0302041 55.7306122,37.9216327 55.8579592,39.0253061 Z M69.0383673,29.3469388 L68.4653061,29.3469388 C67.4677551,29.3469388 66.8097959,29.3893878 66.0881633,29.4955102 L66.0881633,25.9297959 C66.682449,26.0146939 67.6587755,26.0783673 68.4653061,26.0783673 L69.0383673,26.0783673 L69.0383673,25.0808163 C69.0383673,22.2791837 70.6302041,20.9844898 74.0897959,20.9844898 C75.2783673,20.9844898 76.1485714,21.1118367 77.3159184,21.4302041 L76.6579592,24.5502041 C76,24.1893878 75.3632653,24.0195918 74.5567347,24.0195918 C73.5167347,24.0195918 73.1134694,24.4440816 73.1134694,25.5477551 L73.1134694,26.0783673 L73.7289796,26.0783673 C74.6204082,26.0783673 75.7665306,26.0146939 76.5518367,25.9297959 L76.5518367,29.4955102 C75.6604082,29.3893878 74.96,29.3469388 73.7714286,29.3469388 L73.1134694,29.3469388 L73.1134694,35.8204082 C73.1134694,37.284898 73.1559184,37.9853061 73.2832653,39.0253061 L68.8685714,39.0253061 C68.9959184,37.9853061 69.0383673,37.2 69.0383673,35.8204082 L69.0383673,29.3469388 Z" id="Dev-Conf"></path>
        </g>
    </g>
</svg>