<?xml version="1.0" encoding="UTF-8"?>
<svg width="300px" height="120px" viewBox="0 0 300 120" version="1.1" xmlns="http://www.w3.org/2000/svg" xmlns:xlink="http://www.w3.org/1999/xlink">
    <!-- Generator: Sketch 52.6 (67491) - http://www.bohemiancoding.com/sketch -->
    <title>Group 11</title>
    <desc>Created with Sketch.</desc>
    <defs>
        <linearGradient x1="50%" y1="0%" x2="50%" y2="100%" id="linearGradient-1">
            <stop stop-color="#0079BF" offset="0%"></stop>
            <stop stop-color="#0079BF" offset="100%"></stop>
        </linearGradient>
    </defs>
    <g id="Page-1" stroke="none" stroke-width="1" fill="none" fill-rule="evenodd">
        <g id="Group-11">
            <rect id="Rectangle-Copy-6" fill="#FFFFFF" fill-rule="nonzero" x="0" y="0" width="300" height="120"></rect>
            <g id="Group-2" transform="translate(44.000000, 30.000000)">
                <path d="M169.972219,44.9657483 C166.738793,46.2833078 164.187232,50.8352782 160.306596,53.4224599 C160.065963,53.5828877 159.82533,53.6631016 159.664908,53.6631016 C159.344063,53.6631016 158.943008,53.342246 158.943008,51.8983957 C158.943008,46.9251337 160.54723,44.5187166 161.910818,40.9893048 C166.643272,28.7165775 174.744591,18.2085561 181.963588,6.73796791 C182.525066,5.85561497 182.84591,4.89304813 182.84591,3.85026738 C182.84591,2.96791444 182.525066,2.2459893 182.124011,1.36363636 C181.803166,0.64171123 180.359367,0 178.755145,0 C177.872823,0 177.070712,0.0802139037 176.027968,0.0802139037 C172.258047,0.0802139037 171.455937,5.61497326 170.573615,7.05882353 C164.557784,17.2459893 157.659631,29.8395722 154.130343,38.7433155 C153.356413,40.7393109 152.520427,42.7353063 151.884997,44.7838261 C148.397348,45.79379 145.784556,50.6977437 141.697625,53.4224599 C141.456992,53.5828877 141.216359,53.6631016 141.055937,53.6631016 C140.735092,53.6631016 140.334037,53.342246 140.334037,51.8983957 C140.334037,46.9251337 141.938259,44.5187166 143.301847,40.9893048 C148.034301,28.7165775 156.13562,18.2085561 163.354617,6.73796791 C163.916095,5.85561497 164.236939,4.89304813 164.236939,3.85026738 C164.236939,2.96791444 163.916095,2.2459893 163.51504,1.36363636 C163.194195,0.64171123 161.750396,0 160.146174,0 C159.263852,0 158.461741,0.0802139037 157.418997,0.0802139037 C153.649077,0.0802139037 152.846966,5.61497326 151.964644,7.05882353 C145.948813,17.2459893 139.05066,29.8395722 135.521372,38.7433155 C135.240795,39.4669351 134.952061,40.1905549 134.667685,40.9166773 C134.579869,40.9635842 134.490193,41.0144512 134.398417,41.0695187 C130.307652,43.4759358 126.858575,47.7272727 121.885488,50.6149733 C120.922955,51.1764706 117.955145,53.2620321 115.548813,53.2620321 C114.987335,53.2620321 114.506069,53.1016043 114.024802,52.8609626 C113.302902,52.540107 112.581003,51.0160428 112.581003,50.5347594 C112.581003,50.1336898 112.661214,50.0534759 113.463325,49.5721925 C120.5219,45.3208556 126.297098,39.2245989 131.270185,33.1283422 C133.11504,30.8823529 135.521372,26.4705882 135.521372,23.2620321 C135.521372,21.1764706 134.799472,18.7700535 132.312929,17.8877005 C130.548285,17.2459893 128.543008,16.9251337 126.938786,16.9251337 C122.687599,16.9251337 119.559367,18.8502674 117.794723,20.6951872 C115.998218,22.6131451 114.260496,24.5825395 112.64605,26.6211627 C110.959211,25.1647954 108.579942,24.5454545 106.324538,24.5454545 C103.677573,24.5454545 98.7044855,27.8342246 96.1377309,29.7593583 C95.7366755,30.0802139 95.4960422,30.2406417 95.3356201,30.2406417 C95.255409,30.2406417 95.1751979,30.1604278 95.1751979,30 C95.1751979,29.9197861 95.3356201,29.197861 95.3356201,27.9144385 C95.3356201,26.7914439 95.0949868,25.3475936 94.0522427,23.5828877 C93.8116095,23.1818182 92.36781,22.2994652 90.6031662,22.2994652 C88.437467,22.2994652 86.43219,23.342246 86.43219,24.4652406 C86.43219,25.2673797 87.1540897,25.5882353 87.1540897,26.3101604 C87.1540897,26.7112299 86.8332454,28.5561497 86.3519789,30.3208556 C84.9883905,35.4545455 83.3039578,40.5080214 81.539314,45.5614973 C80.576781,48.368984 77.3683377,50.855615 77.3683377,53.9037433 C77.3683377,54.8663102 78.0100264,56.1497326 78.8923483,57.1122995 C80.3361478,58.7165775 81.2184697,59.2780749 82.501847,59.2780749 C83.0633245,59.2780749 83.7050132,59.1176471 84.2664908,58.6363636 C85.469657,57.5935829 86.1113456,56.5508021 86.43219,55.1069519 C88.5176781,45.6417112 94.5335092,39.2245989 101.191029,34.973262 C103.436939,33.5294118 106.48496,32.0053476 106.886016,32.0053476 C107.297259,32.0053476 107.940433,32.195115 108.588525,32.3800617 C106.727498,35.415646 105.219595,38.6169649 104.23905,42.0320856 C103.918206,43.1550802 103.757784,44.197861 103.757784,45.3208556 C103.757784,47.1657754 104.158839,49.0909091 104.800528,50.9358289 C105.68285,53.5026738 107.126649,55.7486631 109.131926,56.7914439 C112.821636,58.7165775 115.468602,59.7593583 117.874934,59.7593583 C119.238522,59.7593583 120.281266,59.5187166 121.404222,58.8770053 C126.676245,55.894045 129.908542,53.6310135 132.242531,51.6209503 C132.306528,53.6589803 132.708253,54.7881001 134.157784,56.3101604 C135.601583,57.8342246 137.847493,59.197861 140.815303,59.8395722 C141.29657,59.9197861 141.777836,60 142.259103,60 C145.65468,60 148.922483,57.2399988 151.442278,54.5039421 C151.734022,55.1009986 152.157981,55.6709255 152.766755,56.3101604 C154.210554,57.8342246 156.456464,59.197861 159.424274,59.8395722 C159.905541,59.9197861 160.386807,60 160.868074,60 C164.845654,60 168.647906,56.2127846 171.277882,53.1131869 C172.154412,54.9262295 174.603853,56.7187629 177.551979,58.1550802 C178.35409,58.5561497 179.316623,58.7967914 180.198945,58.7967914 C183.648021,58.7967914 186.134565,55.9893048 188.059631,53.9037433 C193.032718,48.4491979 195.759894,41.7112299 197.845383,33.2085561 C198.005805,32.5668449 198.246438,32.3262032 198.567282,32.3262032 C199.369393,32.3262032 200.412137,32.3262032 201.535092,32.1657754 C203.700792,31.8449198 205.385224,31.1229947 207.390501,30.802139 C208.593668,30.5614973 208.433245,30.1604278 209.556201,29.7593583 C210.358311,29.4385027 211,29.1176471 211,28.315508 C211,26.9518717 208.513456,25.5080214 204.743536,25.5080214 C201.775726,25.5080214 200.011082,25.7486631 198.807916,25.7486631 C196.963061,25.7486631 196.481794,25.1871658 195.278628,22.0588235 C195.278628,22.0588235 196.481794,25.1871658 195.278628,22.0588235 C195.037995,21.4171123 194.797361,21.0962567 194.075462,20.4545455 C192.391029,19.0106952 190.305541,18.5294118 188.621108,18.5294118 C184.610554,18.5294118 181.161478,22.6203209 178.755145,26.0695187 C178.193668,26.8716578 177.391557,27.513369 176.830079,28.3957219 C173.525926,33.3521264 170.36238,38.9412904 169.972219,44.9657483 Z M67.4221636,17.6470588 C69.4274406,17.6470588 70.5503958,17.486631 70.791029,17.486631 C71.0316623,17.486631 71.1920844,17.5668449 71.1920844,17.8074866 C71.1920844,17.9679144 71.1118734,18.2085561 70.5503958,19.4117647 C65.6575198,29.9197861 62.2886544,40.5882353 59.3208443,52.3796791 C59.2406332,52.7005348 59,53.9037433 59,55.1069519 C59,56.2299465 59.3208443,57.4331551 60.4437995,58.0748663 C62.6094987,59.3582888 64.3741425,59.9197861 65.5773087,59.9197861 C67.3419525,59.9197861 68.2242744,58.7967914 68.2242744,56.9518717 C68.2242744,55.3475936 68.3044855,53.6631016 68.5451187,52.3796791 C70.791029,40.5882353 74.1598945,31.3636364 79.3736148,21.7379679 C81.8601583,17.1657754 82.1810026,16.9251337 82.1810026,16.5240642 C82.1810026,16.3636364 82.1007916,16.1229947 81.9403694,15.8823529 C85.1488127,15.1604278 88.9989446,14.6791444 92.5282322,14.6791444 C92.9292876,14.6791444 94.5335092,15.2406417 94.7741425,15.4812834 C95.3356201,16.0427807 95.8970976,16.6042781 96.8596306,16.6042781 C97.6617414,16.6042781 99.0253298,16.0427807 99.5065963,15.7219251 C100.629551,14.9197861 101.191029,14.0374332 101.191029,12.5935829 C101.191029,11.2299465 96.1377309,7.86096257 92.6084433,7.86096257 C88.2770449,7.86096257 84.3467018,8.42245989 80.6569921,9.14438503 C79.0527704,9.46524064 73.2775726,10.3475936 69.1065963,10.3475936 C65.0960422,10.3475936 65.3366755,9.78609626 63.6522427,9.78609626 C62.6897098,9.78609626 62.2084433,10.2673797 61.8073879,10.6684492 C61.4063325,11.0695187 61.1656992,12.6737968 61.1656992,14.1176471 C61.1656992,14.8395722 61.1656992,15.4010695 61.5667546,15.8823529 C62.7699208,17.3262032 65.0960422,17.6470588 67.4221636,17.6470588 C67.4221636,17.6470588 65.0960422,17.6470588 67.4221636,17.6470588 Z M126.858575,24.144385 C126.858575,24.8663102 126.617942,25.3475936 125.655409,26.8716578 C124.692876,28.3957219 125.093931,28.3957219 123.890765,30 C121.564644,33.1283422 118.677045,36.2566845 114.907124,39.7058824 C113.86438,40.6684492 113.703958,40.6684492 113.543536,40.6684492 C113.463325,40.6684492 113.302902,40.5882353 113.302902,40.4278075 C113.302902,40.1871658 113.383113,39.8663102 114.185224,38.1818182 C116.671768,32.9679144 119.719789,29.5187166 123.088654,26.1497326 C124.933509,24.3048128 126.056464,23.6631016 126.45752,23.6631016 C126.698153,23.6631016 126.858575,23.7433155 126.858575,24.144385 C126.858575,24.144385 126.858575,23.7433155 126.858575,24.144385 Z M188.540897,26.2299465 C188.621108,26.2299465 188.701319,26.3101604 188.78153,26.4705882 C188.861741,26.7112299 189.022164,26.9518717 189.423219,27.2727273 C189.744063,27.513369 189.744063,28.6363636 189.744063,29.5187166 C189.744063,37.2994652 185.332454,43.7165775 181.001055,50.2139037 C180.038522,51.657754 179.477045,51.8983957 178.995778,51.8983957 C178.594723,51.8983957 177.953034,50.855615 177.712401,50.2139037 C177.391557,49.3315508 177.311346,48.2887701 177.311346,47.8877005 C177.311346,41.631016 183.246966,32.3262032 187.177309,27.1925134 C187.818997,26.3101604 188.300264,26.2299465 188.540897,26.2299465 C188.540897,26.2299465 188.300264,26.2299465 188.540897,26.2299465 Z" id="Type" fill="#0079BF" fill-rule="nonzero"></path>
                <g id="Mark" transform="translate(0.000000, 9.000000)">
                    <rect id="Board" fill="url(#linearGradient-1)" x="0" y="0" width="51" height="51" rx="6.33001134"></rect>
                    <rect id="Right-List" fill="#FFFFFF" x="28.815" y="6.63" width="15.555" height="22.3125" rx="3.03840544"></rect>
                    <rect id="Left-List" fill="#FFFFFF" x="6.63" y="6.63" width="15.555" height="35.0625" rx="3.03840544"></rect>
                </g>
            </g>
        </g>
    </g>
</svg>