<?xml version="1.0" encoding="UTF-8"?>
<svg width="300px" height="120px" viewBox="0 0 300 120" version="1.1" xmlns="http://www.w3.org/2000/svg" xmlns:xlink="http://www.w3.org/1999/xlink">
    <!-- Generator: Sketch 52.6 (67491) - http://www.bohemiancoding.com/sketch -->
    <title>Group 10</title>
    <desc>Created with Sketch.</desc>
    <defs>
        <linearGradient x1="91.8490119%" y1="40.1398458%" x2="28.3011858%" y2="81.4706941%" id="linearGradient-1">
            <stop stop-color="#0052CC" offset="18%"></stop>
            <stop stop-color="#2684FF" offset="100%"></stop>
        </linearGradient>
        <linearGradient x1="8.69090909%" y1="59.4005141%" x2="72.116996%" y2="18.1491003%" id="linearGradient-2">
            <stop stop-color="#0052CC" offset="18%"></stop>
            <stop stop-color="#2684FF" offset="100%"></stop>
        </linearGradient>
    </defs>
    <g id="Page-1" stroke="none" stroke-width="1" fill="none" fill-rule="evenodd">
        <g id="Group-10">
            <rect id="Rectangle-Copy-7" fill="#FFFFFF" fill-rule="nonzero" x="0" y="0" width="300" height="120"></rect>
            <g id="jira-2" transform="translate(56.000000, 27.000000)">
                <g id="jira">
                    <path d="M96.3178082,7.9025641 L103.271233,7.9025641 L103.271233,43.3782051 C103.271233,52.7410256 99.1506849,59.2692308 89.5360731,59.2692308 C86.7031963,59.3551282 83.8703196,58.8397436 81.1232877,57.9807692 L81.1232877,51.1948718 C83.4410959,52.0538462 85.8447489,52.5692308 88.3342466,52.4833333 C94.2575342,52.4833333 96.3178082,48.9615385 96.3178082,43.8935897 L96.3178082,7.9025641 Z" id="Path" fill="#253858"></path>
                    <path d="M115.976256,5.15384615 C118.379909,4.98205128 120.440183,6.78589744 120.611872,9.19102564 C120.611872,9.36282051 120.611872,9.62051282 120.611872,9.79230769 C120.611872,12.3692308 118.551598,14.4307692 115.976256,14.4307692 C113.400913,14.4307692 111.340639,12.3692308 111.340639,9.79230769 C111.340639,9.79230769 111.340639,9.79230769 111.340639,9.79230769 C111.16895,7.38717949 112.971689,5.32564103 115.375342,5.15384615 C115.632877,5.15384615 115.804566,5.15384615 115.976256,5.15384615 Z M112.628311,20.1 L119.324201,20.1 L119.324201,58.925641 L112.628311,58.925641 L112.628311,20.1 Z" id="Shape" fill="#253858" fill-rule="nonzero"></path>
                    <path d="M129.368037,20.1 L135.892237,20.1 L135.892237,26.9717949 C138.124201,22.4192308 142.073059,19.1551282 149.627397,19.5846154 L149.627397,26.1128205 C141.042922,25.2538462 135.892237,27.8307692 135.892237,36.0769231 L135.892237,59.0115385 L129.368037,59.0115385 L129.368037,20.1 Z" id="Path" fill="#253858"></path>
                    <path d="M180.960731,51.9679487 C178.471233,57.1217949 173.835616,59.6987179 167.826484,59.6987179 C157.525114,59.6987179 152.288584,50.9371795 152.288584,39.5128205 C152.288584,28.5179487 157.696804,19.3269231 168.599087,19.3269231 C174.26484,19.3269231 178.642922,21.9038462 180.960731,26.9717949 L180.960731,20.1 L187.656621,20.1 L187.656621,58.925641 L180.960731,58.925641 L180.960731,51.9679487 Z M169.629224,53.5141026 C175.638356,53.5141026 180.960731,49.7346154 180.960731,41.0589744 L180.960731,37.8807692 C180.960731,29.2910256 176.06758,25.425641 170.401826,25.425641 C162.847489,25.425641 158.984475,30.4076923 158.984475,39.4269231 C158.984475,48.7897436 162.675799,53.5141026 169.629224,53.5141026 Z" id="Shape" fill="#253858" fill-rule="nonzero"></path>
                    <path d="M63.7826484,31.524359 L35.0246575,2.74871795 L32.2776256,0 L10.6447489,21.6461538 L0.77260274,31.524359 C-0.257534247,32.5551282 -0.257534247,34.2730769 0.77260274,35.3038462 L20.516895,55.0602564 L32.2776256,66.8282051 L53.9105023,45.1820513 L54.2538813,44.8384615 L63.7826484,35.3038462 C64.8127854,34.2730769 64.8127854,32.5551282 63.7826484,31.524359 Z M32.1917808,43.2923077 L22.3196347,33.4141026 L32.1917808,23.5358974 L42.0639269,33.4141026 L32.1917808,43.2923077 Z" id="Shape" fill="#2684FF" fill-rule="nonzero"></path>
                    <path d="M32.1917808,23.5358974 C25.7534247,17.0935897 25.6675799,6.61410256 32.1059361,0.0858974359 L10.4730594,21.7320513 L22.23379,33.5 L32.1917808,23.5358974 Z" id="Path" fill="url(#linearGradient-1)"></path>
                    <path d="M42.0639269,33.3282051 L32.1917808,43.2064103 C38.7159817,49.7346154 38.7159817,60.2141026 32.1917808,66.7423077 C32.1917808,66.7423077 32.1917808,66.7423077 32.1917808,66.7423077 L53.9105023,45.0102564 L42.0639269,33.3282051 Z" id="Path" fill="url(#linearGradient-2)"></path>
                </g>
            </g>
        </g>
    </g>
</svg>