<?xml version="1.0" encoding="UTF-8"?>
<svg width="300px" height="120px" viewBox="0 0 300 120" version="1.1" xmlns="http://www.w3.org/2000/svg" xmlns:xlink="http://www.w3.org/1999/xlink">
    <!-- Generator: Sketch 52.6 (67491) - http://www.bohemiancoding.com/sketch -->
    <title>Group 5</title>
    <desc>Created with Sketch.</desc>
    <g id="Page-1" stroke="none" stroke-width="1" fill="none" fill-rule="evenodd">
        <g id="Group-5">
            <rect id="Rectangle-Copy-5" fill="#FFFFFF" fill-rule="nonzero" x="0" y="0" width="300" height="120"></rect>
            <g id="ionic" transform="translate(36.000000, 22.000000)" fill="#478AFF">
                <path d="M38.8695652,21.3310811 C29.2165883,21.3310811 21.3913043,29.1343344 21.3913043,38.7601351 C21.3913043,48.3859359 29.2165883,56.1891892 38.8695652,56.1891892 C48.5225421,56.1891892 56.3478261,48.3859359 56.3478261,38.7601351 C56.3363264,29.1390883 48.5177748,21.3425484 38.8695652,21.3310811 Z" id="Path"></path>
                <ellipse id="Oval" cx="63.9652174" cy="14.9369595" rx="7.96173913" ry="7.93932432"></ellipse>
                <path d="M73.7686957,22.9179054 L73.4347826,22.189527 L72.9130435,22.7930405 C71.6077804,24.2699555 69.9572718,25.4029375 68.1078261,26.0915541 L67.586087,26.2788514 L67.7947826,26.7991216 C73.5963831,40.7119615 68.6206003,56.7719652 55.9601525,64.9969719 C43.2997047,73.2219786 26.5570943,71.2715808 16.1387593,60.358056 C5.72042424,49.4445313 4.59087883,32.6732993 13.4521966,20.4685876 C22.3135144,8.2638759 38.6442269,4.0985085 52.293913,10.5614865 L52.7843478,10.7956081 L52.9982609,10.2753378 C53.7779447,8.46693868 54.9929714,6.8782694 56.5356522,5.65013514 L57.1617391,5.12986486 L56.4469565,4.76047297 C51.0167629,1.94612832 44.9841591,0.484171992 38.8643478,0.499459459 C21.8461415,0.501896357 6.86479495,11.6869641 2.07031285,27.9698723 C-2.72416926,44.2527806 3.81498104,61.7389026 18.1303996,70.9156105 C32.4458182,80.0923185 51.1134722,78.7646818 63.9779685,67.6549485 C76.8424648,56.5452151 80.8268093,38.310666 73.7634783,22.8710811 L73.7686957,22.9179054 Z" id="Path"></path>
                <rect id="Rectangle" x="96.9547826" y="22.1114865" width="8.08695652" height="33.2972973"></rect>
                <rect id="Rectangle" x="184.226087" y="22.1114865" width="8.08695652" height="33.2972973"></rect>
                <path d="M165.553043,21.3310811 C159.866087,21.3310811 155.473043,24.7492568 154.466087,25.6909459 L153.944348,22.1114865 L147.213913,22.1114865 L147.213913,55.4087838 L155.30087,55.4087838 L155.30087,35.2483108 C155.30087,31.3150676 160.685217,28.0581757 164.624348,28.0581757 C168.563478,28.0581757 171.521739,31.814527 171.521739,36.2888514 L171.521739,55.4087838 L179.608696,55.4087838 L179.608696,37.0848649 C179.582609,28.3547297 175.805217,21.3310811 165.553043,21.3310811 Z" id="Path"></path>
                <path d="M213.542609,49.3580405 C207.464348,49.3580405 203.446957,44.6131757 203.446957,38.7601351 C203.446957,32.9070946 207.464348,28.1622297 213.542609,28.1622297 C218.728696,28.1622297 221.890435,33.1724324 221.890435,33.1724324 L227.749565,29.2652027 C226.053913,26.6638514 224.097391,25.1030405 221.426087,23.4902027 C219.120514,22.0954591 216.479206,21.3493452 213.782609,21.3310811 C203.666087,21.3310811 195.93913,28.9062162 195.892174,38.7601351 C195.93913,48.6140541 203.666087,56.1891892 213.782609,56.1891892 C216.46856,56.165308 219.098319,55.4194013 221.394783,54.0300676 C224.066087,52.4224324 226.022609,50.8564189 227.718261,48.2550676 L221.85913,44.3478378 C221.85913,44.3478378 218.728696,49.3580405 213.542609,49.3580405 Z" id="Path"></path>
                <path d="M126.130435,21.3310811 C121.495493,21.2567246 117.026295,23.0492143 113.733776,26.3030879 C110.441257,29.5569616 108.603614,33.9972878 108.636522,38.6196622 C108.636522,48.0625676 115.721739,56.1891892 126.250435,56.1891892 C135.782609,56.1891892 143.593043,48.9054054 143.593043,38.8225676 C143.593043,27.2777703 134.509565,21.3310811 126.130435,21.3310811 Z M126.229565,28.1778378 C131.243478,28.1778378 135.991304,32.2359459 135.991304,38.7757432 C135.991304,45.1750676 131.264348,49.3476351 126.208696,49.3476351 C120.652174,49.3476351 116.295652,44.8941216 116.295652,38.7237162 C116.295652,32.6885811 120.62087,28.1778378 126.255652,28.1778378 L126.229565,28.1778378 Z" id="path3000" fill-rule="nonzero"></path>
            </g>
        </g>
    </g>
</svg>