<?xml version="1.0" encoding="UTF-8"?>
<svg width="300px" height="120px" viewBox="0 0 300 120" version="1.1" xmlns="http://www.w3.org/2000/svg" xmlns:xlink="http://www.w3.org/1999/xlink">
    <!-- Generator: Sketch 52.6 (67491) - http://www.bohemiancoding.com/sketch -->
    <title>logo-1</title>
    <desc>Created with Sketch.</desc>
    <g id="Page-1" stroke="none" stroke-width="1" fill="none" fill-rule="evenodd">
        <g id="logo-1">
            <rect id="Rectangle" fill="#FFFFFF" fill-rule="nonzero" x="0" y="0" width="300" height="120"></rect>
            <g id="adobe-2" transform="translate(25.000000, 30.000000)">
                <g id="adobe">
                    <path d="M97.3710222,43.3403296 L93.9594225,59.2432567 L86.1127431,59.2432567 L99.076822,1.60904214 L108.37201,1.60904214 L120.568479,59.2432567 L112.636509,59.2432567 L109.3102,43.3403296 L97.3710222,43.3403296 Z M108.37201,36.9267096 L105.72802,23.1573801 C104.96041,19.2236932 104.1928,14.0956477 103.597192,9.98950561 L103.25461,9.98950561 C102.659002,14.1797373 101.803259,19.480238 101.038492,23.1573801 L98.3092121,36.9267096 L108.37201,36.9267096 Z M150.519481,0.0711985933 L150.519481,48.5553153 C150.519481,51.7207931 150.690061,56.3385995 150.85922,59.2446819 L143.952152,59.2446819 L143.440412,54.2007261 L143.184542,54.2007261 C141.819902,57.1068086 138.664172,59.9302267 134.486384,59.9302267 C126.810285,59.9302267 122.119335,51.5483379 122.119335,38.6384335 C122.119335,23.929865 128.344083,17.0031554 134.912834,17.0031554 C138.237722,17.0031554 140.881712,18.5438494 142.331642,21.7064767 L142.502222,21.7064767 L142.502222,0.0711985933 L150.519481,0.0711985933 Z M142.5008,33.5061123 C142.5008,32.7379031 142.5008,31.7972388 142.41551,30.939239 C141.98906,27.1780072 139.856811,23.9284397 136.958372,23.9284397 C131.924841,23.9284397 130.220463,30.939239 130.220463,38.6370083 C130.220463,47.1885016 132.438003,53.1731217 136.702502,53.1731217 C138.493592,53.1731217 140.88029,52.2324574 142.24493,47.2740165 C142.41551,46.5898971 142.5008,45.5622926 142.5008,44.6244788 L142.5008,33.5061123 Z M169.61591,59.9288014 C161.344203,59.9288014 155.372482,52.8310619 155.372482,38.5529186 C155.372482,23.4153501 162.45013,17.0017301 170.040939,17.0017301 C178.228778,17.0017301 184.112366,24.3560144 184.112366,38.3804635 C184.112366,54.8848456 176.009817,59.9288014 169.699779,59.9288014 L169.61591,59.9288014 Z M169.870359,53.6021216 C174.815757,53.6021216 175.925948,44.7940835 175.925948,38.4674036 C175.925948,32.2233883 174.817179,23.3312605 169.7012,23.3312605 C164.411799,23.3312605 163.389741,32.2233883 163.389741,38.4674036 C163.389741,45.392688 164.583801,53.6021216 169.78649,53.6021216 L169.870359,53.6021216 Z M188.945466,0.0711985933 L196.961304,0.0711985933 L196.961304,22.3891709 L197.131884,22.3891709 C199.264133,18.6279391 202.163993,17.0017301 205.831463,17.0017301 C212.909111,17.0017301 217.345612,25.0401339 217.345612,37.7818589 C217.345612,52.6600321 211.290022,59.9288014 204.466823,59.9288014 C200.372903,59.9288014 198.070074,57.7039879 196.277562,54.0268458 L195.939245,54.0268458 L195.511374,59.2432567 L188.604306,59.2432567 C188.774886,56.4226891 188.945466,51.7193678 188.945466,48.55389 L188.945466,0.0711985933 Z M196.961304,44.5346882 C196.961304,45.4782029 197.046594,46.4188672 197.302464,47.1015614 C198.580392,52.1483677 201.055223,53.1731217 202.674312,53.1731217 C207.450551,53.1731217 209.241641,46.8464419 209.241641,38.2949485 C209.241641,30.3420597 207.366683,23.9284397 202.589022,23.9284397 C199.945032,23.9284397 197.812782,27.0924923 197.215752,30.0855149 C197.045172,30.9406643 196.959882,32.0537836 196.959882,32.9075077 L196.959882,44.5346882 L196.961304,44.5346882 Z M229.175334,40.0893369 C229.260624,50.7787035 233.864862,53.4282412 238.726392,53.4282412 C241.626251,53.4282412 244.099661,52.745547 245.890751,51.8889724 L247.084811,57.7039879 C244.611401,58.9867119 240.858641,59.6722566 237.191172,59.6722566 C226.787214,59.6722566 221.328655,51.8048827 221.328655,38.9776427 C221.328655,25.3807684 227.553402,17.0003049 236.167692,17.0003049 C244.781981,17.0003049 248.790611,25.2952534 248.790611,35.7295005 C248.790611,37.7804337 248.703899,39.0645829 248.620031,40.1748518 L229.175334,40.0893369 Z M241.199801,34.3612616 C241.285091,27.0069773 238.726392,23.0747157 235.572083,23.0747157 C231.391452,23.0747157 229.515072,29.1462759 229.260624,34.3612616 L241.199801,34.3612616 Z" id="Shape" fill="#000000" fill-rule="nonzero"></path>
                    <path d="M40.931791,1.76296902 L64.8797995,1.76296902 L64.8797995,59.2432567 L40.931791,1.76296902 Z M24.0614305,1.76296902 L0.0963640453,1.76296902 L0.0963640453,59.2432567 L24.0614305,1.76296902 Z M32.4980323,22.9464433 L47.7564119,59.2432567 L37.7575818,59.2432567 L33.1945672,47.683063 L22.0258427,47.683063 L32.4980323,22.9464433 Z" id="Shape" fill="#CC2131"></path>
                    <path d="M248.109712,16.8948365 C248.595015,16.8970744 249.059316,17.0936054 249.399397,17.440739 C249.739477,17.7878726 249.927154,18.2568396 249.920703,18.7433843 C249.920703,19.7866665 249.117556,20.6004836 248.101183,20.6004836 C247.09334,20.6004836 246.273134,19.7880917 246.273134,18.7433843 C246.270489,18.255025 246.461737,17.7856756 246.804686,17.4388809 C247.147635,17.0920862 247.614104,16.8963436 248.101183,16.8948365 L248.109712,16.8948365 Z M248.101183,17.1813115 C247.290928,17.1813115 246.625666,17.8811087 246.625666,18.7433843 C246.625666,19.6227628 247.290928,20.3125833 248.109712,20.3125833 C248.928496,20.3211348 249.583808,19.6227628 249.583808,18.7519358 C249.583808,17.8811087 248.928496,17.1813115 248.109712,17.1813115 L248.101183,17.1813115 Z M247.75718,19.8208724 L247.430235,19.8208724 L247.430235,17.757112 C247.602237,17.7328828 247.767131,17.7072283 248.01305,17.7072283 C248.324359,17.7072283 248.527633,17.774215 248.651304,17.8640057 C248.774974,17.9537964 248.840363,18.0934708 248.840363,18.2915804 C248.840363,18.5623777 248.659833,18.7277065 248.438079,18.793268 L248.438079,18.8089457 C248.618609,18.8417265 248.74228,19.0070553 248.782082,19.3106333 C248.831834,19.6313143 248.880165,19.7538857 248.914281,19.8208724 L248.570278,19.8208724 C248.520526,19.7538857 248.472195,19.5657529 248.430971,19.2949556 C248.381219,19.0312846 248.250441,18.9329424 247.987463,18.9329424 L247.758602,18.9329424 L247.758602,19.8208724 L247.75718,19.8208724 Z M247.75718,18.6778228 L247.994571,18.6778228 C248.264656,18.6778228 248.49636,18.5794807 248.49636,18.3243611 C248.49636,18.1433545 248.364161,17.9623479 247.994571,17.9623479 C247.88938,17.9623479 247.81404,17.9708994 247.75718,17.9794509 L247.75718,18.6778228 Z M68.0369507,1.76296902 C68.5222533,1.76520692 68.9865542,1.96173799 69.3266351,2.30887157 C69.666716,2.65600516 69.8543922,3.12497213 69.8479415,3.61151683 C69.8479415,4.65479902 69.0447941,5.46861613 68.0284217,5.46861613 C67.0205783,5.46861613 66.2003729,4.65622427 66.2003729,3.61151683 C66.1977275,3.12315758 66.3889752,2.65380818 66.7319242,2.30701348 C67.0748732,1.96021879 67.5413422,1.76447614 68.0284217,1.76296902 L68.0369507,1.76296902 Z M68.0284217,2.04944405 C67.2167453,2.04944405 66.5529048,2.74924125 66.5529048,3.61151683 C66.5529048,4.4908954 67.2167453,5.18071586 68.0369507,5.18071586 C68.8557346,5.18926735 69.5124676,4.4908954 69.5124676,3.62006833 C69.5124676,2.74924125 68.8557346,2.04944405 68.0369507,2.04944405 L68.0284217,2.04944405 Z M67.6844187,4.68900499 L67.3560523,4.68900499 L67.3560523,2.6252446 C67.5486819,2.59319229 67.743603,2.57698547 67.9388672,2.57678614 C68.2501757,2.57678614 68.4548717,2.64092234 68.5771207,2.73213827 C68.7007911,2.82192895 68.7661801,2.96302859 68.7661801,3.15971293 C68.7661801,3.43051022 68.5856497,3.59583909 68.3638957,3.66140054 L68.3638957,3.67707828 C68.5444262,3.70985901 68.6680966,3.87518788 68.7093201,4.18019114 C68.7576511,4.50087214 68.8074036,4.62344354 68.8400981,4.69043024 L68.4960952,4.69043024 C68.4463427,4.62344354 68.3965902,4.43531069 68.3567882,4.1645134 C68.3070357,3.90084236 68.1762577,3.80250018 67.9132802,3.80250018 L67.6844187,3.80250018 L67.6844187,4.68900499 Z M67.6844187,3.54595538 L67.9218092,3.54595538 C68.1918942,3.54595538 68.4221772,3.44761321 68.4221772,3.19249366 C68.4221772,3.01148705 68.2913992,2.83048044 67.9218092,2.83048044 C67.8151967,2.83048044 67.7412787,2.83903193 67.6844187,2.84758343 L67.6844187,3.54595538 Z" id="Shape" fill="#000000" fill-rule="nonzero"></path>
                </g>
            </g>
        </g>
    </g>
</svg>