<?xml version="1.0" encoding="UTF-8"?>
<svg width="300px" height="120px" viewBox="0 0 300 120" version="1.1" xmlns="http://www.w3.org/2000/svg" xmlns:xlink="http://www.w3.org/1999/xlink">
    <!-- Generator: Sketch 52.6 (67491) - http://www.bohemiancoding.com/sketch -->
    <title>Group 9</title>
    <desc>Created with Sketch.</desc>
    <g id="Page-1" stroke="none" stroke-width="1" fill="none" fill-rule="evenodd">
        <g id="Group-9" fill-rule="nonzero">
            <rect id="Rectangle-Copy-8" fill="#FFFFFF" x="0" y="0" width="300" height="120"></rect>
            <g id="evernote" transform="translate(6.000000, 24.000000)">
                <path d="M6.00008462,14.0230515 L12.7289679,14.0230515 C13.1143013,14.0230515 13.4241735,13.708701 13.4249145,13.3256907 C13.4249145,13.3232165 13.3432782,7.5502268 13.3432782,5.94482474 L13.3432782,5.9257732 C13.3432782,4.60725773 13.6195573,3.45773196 14.1007299,2.49439175 L14.3306949,2.0617732 C14.3010989,2.06734657 14.2740785,2.08231075 14.2536282,2.10445361 L1.1878641,15.0827629 C1.16392653,15.1024489 1.14680949,15.1292066 1.13895641,15.1592165 C1.40918376,15.0252371 1.77870855,14.8421443 1.83095085,14.819134 C2.96879573,14.304866 4.34846197,14.0230515 6.00008462,14.0230515 Z M58.3248932,12.6098969 C57.7907372,9.74573196 56.0907009,8.33418557 54.5536902,7.77921649 C52.8953983,7.17884536 49.5329944,6.55694845 45.3081603,6.05814433 C41.9091991,5.65719588 37.9142064,5.6891134 35.5010564,5.76383505 C35.2113154,3.77678351 33.8200397,1.9614433 32.2631449,1.33298969 C28.1148833,-0.339463918 21.7059996,0.0645773196 20.0603051,0.526515464 C18.7527654,0.89257732 17.3054188,1.64276289 16.4999239,2.79884536 C15.9597162,3.57105155 15.6101991,4.56037113 15.6074821,5.94247423 C15.6074821,6.72470103 15.6292188,8.56738144 15.649103,10.2045773 C15.6688637,11.8468454 15.6903534,13.3156701 15.6903534,13.3256907 C15.6896124,14.7878351 14.506565,15.9778144 13.0404457,15.9796701 L6.31489701,15.9796701 C4.88027137,15.9796701 3.78417094,16.2211546 2.94681197,16.6021856 C2.10821795,16.9835876 1.5142859,17.497732 1.06300128,18.1060206 C0.164754701,19.3139381 0.00876880342,20.8045361 0.0124739316,22.3256907 C0.0124739316,22.3256907 0.0256888889,23.5687423 0.324692735,25.9746804 C0.573306838,27.8362887 2.58877308,40.8410722 4.50308932,44.7963711 C5.24535,46.3350928 5.73973761,46.9760412 7.19795256,47.6544742 C10.4469795,49.0478351 17.8682278,50.5979381 21.3464786,51.0418144 C24.8184308,51.4868041 26.9975402,52.4221856 28.2961876,49.6947216 C28.3005103,49.6877938 28.5561641,49.0161649 28.9081513,48.0306804 C30.0356218,44.6084536 30.1923487,41.5719588 30.1923487,39.3745979 C30.1923487,39.1510515 30.519635,39.1409072 30.519635,39.3745979 C30.519635,40.9258144 30.2237188,46.4156289 34.3638291,47.8882887 C35.9980376,48.468866 39.3886004,48.9864742 42.8335051,49.3908866 C45.9484064,49.7492784 48.2087816,50.9772371 48.2087816,58.9821031 C48.2087816,63.8521237 47.1875248,64.5200412 41.8489291,64.5200412 C37.5213393,64.5200412 35.8719397,64.6322474 35.8719397,61.1883711 C35.8719397,58.4049897 38.6201568,58.6965773 40.6569893,58.6965773 C41.5667218,58.6965773 40.9064679,58.0187629 40.9064679,56.3016495 C40.9064679,54.5933196 41.9730509,53.6059794 40.9642679,53.5809897 C33.9211897,53.3868866 29.7768803,53.5729485 29.7768803,62.3961649 C29.7768803,70.4061031 32.8370692,71.8934845 42.8333816,71.8934845 C50.6709628,71.8934845 53.4337534,71.6365361 56.6698124,61.5783093 C57.3105526,59.5927423 58.8591726,53.5333608 59.7963231,43.3592165 C60.3892671,36.9263505 59.2380838,17.5103505 58.3248932,12.6098969 Z M44.6624799,34.0707216 C43.6942064,34.0368247 42.7628607,34.0980619 41.8943786,34.2378557 C42.1387936,32.2605773 42.9535513,29.8343505 45.8398462,29.9359175 C49.0349017,30.0460206 49.4826047,33.0708866 49.4939671,35.1197938 C48.1467825,34.5180619 46.4789808,34.1346804 44.6624799,34.0707216 Z" id="Shape" fill="#807F83"></path>
                <path d="M286.694052,22.0274227 C287.933788,22.0274227 288.932937,23.0336907 288.932937,24.2696907 C288.932937,25.5098969 287.933788,26.5187629 286.694052,26.5187629 C285.452216,26.5187629 284.45319,25.5098969 284.45319,24.2696907 C284.453314,23.0336907 285.452093,22.0274227 286.694052,22.0274227 Z M286.694052,26.1226392 C287.69456,26.1226392 288.51364,25.3045361 288.51364,24.2696907 C288.51364,23.2358351 287.694313,22.4193402 286.694052,22.4193402 C285.691938,22.4193402 284.873105,23.2358351 284.873105,24.2696907 C284.873105,25.3045361 285.691938,26.1226392 286.694052,26.1226392 Z M285.738499,22.9870515 L286.723569,22.9870515 C287.356405,22.9870515 287.684679,23.2084948 287.684679,23.7259794 C287.684679,24.1941031 287.387652,24.3890722 287.022944,24.4566186 L287.712591,25.5534433 L287.230801,25.5534433 L286.557456,24.4772784 L286.161007,24.4772784 L286.161007,25.5534433 L285.73887,25.5534433 L285.73887,22.9870515 L285.738499,22.9870515 Z M286.160637,24.0851134 L286.723446,24.0851134 C287.131874,24.0851134 287.259207,23.9453196 287.259207,23.704701 C287.259207,23.466433 287.057031,23.3810722 286.723446,23.3810722 L286.160637,23.3810722 L286.160637,24.0851134 Z" id="Shape" fill="#7AC143"></path>
                <g id="Group" transform="translate(69.038889, 21.402062)" fill="#7AC143">
                    <path d="M0.0743495726,23.6056082 L3.08538376,23.6056082 L3.23062479,4.33583505 L0.0743495726,4.33583505 L0.0743495726,0.638721649 L20.0373333,0.638721649 L20.2806368,8.13204124 L16.3460376,8.13204124 L16.0066479,4.33583505 L8.47659231,4.33583505 L8.42780812,11.8772784 L16.0548145,11.8772784 L16.0548145,15.5764948 L8.37976496,15.5764948 L8.3319688,23.6053608 L15.90945,23.6053608 L16.3958098,19.3212371 L20.6699222,19.3212371 L20.1841799,27.3022268 L0.0743495726,27.3022268 L0.0743495726,23.6056082 Z M52.0485295,4.33583505 L49.5233611,4.33583505 L40.0492248,27.3023505 L34.6102201,27.3023505 L25.0885346,4.33583505 L22.4167667,4.33583505 L22.4167667,0.638721649 L33.7852115,0.638721649 L33.7852115,4.33583505 L31.1130731,4.33583505 L37.670162,22.4375258 L37.7664953,22.4375258 L44.2761585,4.33583505 L41.0714697,4.33583505 L41.0714697,0.638721649 L52.0485295,0.638721649 L52.0485295,4.33583505 Z M54.6710192,23.6056082 L57.6820534,23.6056082 L57.8282825,4.33583505 L54.6711427,4.33583505 L54.6710192,0.638721649 L74.634003,0.638721649 L74.8773064,8.13204124 L70.9433248,8.13204124 L70.6027,4.33583505 L63.0731385,4.33583505 L63.0247248,11.8772784 L70.6517312,11.8772784 L70.6517312,15.5764948 L62.9772991,15.5764948 L62.9276504,23.6053608 L70.5048846,23.6053608 L70.992356,19.3212371 L75.2667154,19.3212371 L74.7803556,27.3022268 L54.6712662,27.3022268 L54.6710192,23.6056082 Z M80.2698735,23.6056082 L83.2809077,23.6056082 L83.4263957,4.33583505 L80.2698735,4.33583505 L80.2698735,0.638721649 L92.5591662,0.638721649 C98.7299338,0.638721649 100.719341,4.19096907 100.719341,7.64486598 C100.719341,10.7105567 99.2148115,13.4842887 94.4531043,14.7004948 L94.4531043,14.7973608 C96.9302295,15.4780206 97.5639299,16.111299 100.040561,20.393567 C101.690208,23.1676701 102.273395,23.6054845 103.197824,23.6054845 C103.585628,23.6054845 103.973678,23.5072577 104.314303,23.4595052 L104.314303,27.3024742 L101.593133,27.3022268 C97.9980474,27.3022268 97.5636829,26.8658969 94.7466739,21.2684536 C92.2182944,16.3060206 91.6353543,15.9660619 89.6922615,15.9660619 L88.6255551,15.9660619 L88.5760299,23.605732 L91.7318111,23.605732 L91.7318111,27.3024742 L80.269503,27.3024742 L80.269503,23.6054845 L80.2698735,23.6054845 L80.2698735,23.6056082 Z M88.6748333,12.2668454 L90.7621791,12.2668454 C93.6269842,12.2668454 95.5690889,10.7105567 95.5690889,8.22989691 C95.5690889,5.79661856 94.3571415,4.33595876 91.9268244,4.33595876 L88.7196654,4.33595876 L88.6748333,12.2668454 Z M128.748265,4.33583505 L125.589643,4.33583505 L125.589643,0.638721649 L136.032671,0.638597938 L136.032671,4.33583505 L133.020648,4.33583505 L132.87516,27.3023505 L128.892147,27.3023505 L114.659268,8.32626804 L114.562935,8.32626804 L114.415965,23.6056082 L117.574833,23.6056082 L117.574833,27.3023505 L107.131065,27.3023505 L107.131065,23.6056082 L110.142964,23.6056082 L110.288452,4.33571134 L107.131435,4.33571134 L107.131435,0.638597938 L115.000881,0.638597938 L128.504715,18.6906804 L128.601789,18.6906804 L128.748265,4.33583505 Z M151.139219,0.101690722 C160.321144,0.101690722 164.352324,6.18420619 164.352324,13.5817732 C164.352324,21.9990928 159.347684,27.8366598 151.139219,27.8366598 C141.958035,27.8366598 137.926362,21.7553814 137.926362,14.3125361 C137.926238,5.94358763 142.927914,0.101690722 151.139219,0.101690722 Z M151.139219,23.5561237 C156.092358,23.5561237 158.909367,19.3216082 158.909367,13.9209897 C158.909367,7.84082474 155.608962,4.38581443 151.139219,4.38581443 C146.183857,4.38581443 143.367095,8.61835052 143.367095,14.1169485 C143.367095,20.1019794 146.670341,23.5561237 151.139219,23.5561237 Z M172.706029,23.6056082 L175.715582,23.6056082 L175.860823,4.33583505 L170.520868,4.33583505 L170.322397,8.13204124 L166.294429,8.13204124 L166.582935,0.638721649 L190.436674,0.638721649 L190.727773,8.13204124 L186.694247,8.13204124 L186.500345,4.33583505 L181.157056,4.33583505 L181.011074,23.6056082 L184.166979,23.6056082 L184.166979,27.3024742 L172.7064,27.3024742 L172.7064,23.6056082 L172.706029,23.6056082 Z M193.687306,23.6056082 L196.699452,23.6056082 L196.846422,4.33583505 L193.687306,4.33583505 L193.687306,0.638721649 L213.654489,0.638721649 L213.895446,8.13204124 L209.962082,8.13204124 L209.622198,4.33583505 L202.093007,4.33583505 L202.044346,11.8772784 L209.668018,11.8772784 L209.668018,15.5764948 L201.995315,15.5764948 L201.94579,23.6053608 L209.523024,23.6053608 L210.01173,19.3212371 L214.283373,19.3212371 L213.799606,27.3022268 L193.687306,27.3022268 L193.687306,23.6056082 Z" id="Shape"></path>
                </g>
            </g>
        </g>
    </g>
</svg>