<?xml version="1.0" encoding="UTF-8"?>
<svg width="300px" height="120px" viewBox="0 0 300 120" version="1.1" xmlns="http://www.w3.org/2000/svg" xmlns:xlink="http://www.w3.org/1999/xlink">
    <!-- Generator: Sketch 52.6 (67491) - http://www.bohemiancoding.com/sketch -->
    <title>Group 8</title>
    <desc>Created with Sketch.</desc>
    <g id="Page-1" stroke="none" stroke-width="1" fill="none" fill-rule="evenodd">
        <g id="Group-8">
            <rect id="Rectangle-Copy-11" fill="#FFFFFF" fill-rule="nonzero" x="0" y="0" width="300" height="120"></rect>
            <g id="salesforce" transform="translate(66.000000, 2.000000)">
                <path d="M69.9004674,12.7690766 C75.3165112,7.15568195 82.8566783,3.67410643 91.1958292,3.67410643 C102.281413,3.67410643 111.952932,9.82292229 117.103544,18.951001 C121.579399,16.9618159 126.53367,15.8551896 131.746144,15.8551896 C151.740068,15.8551896 167.949704,32.1198208 167.949704,52.1820633 C167.949704,72.2466467 151.740068,88.511278 131.746144,88.511278 C129.351344,88.5126676 126.962404,88.2758846 124.614966,87.8044618 C120.079435,95.8521668 111.436358,101.289652 101.515881,101.289652 C97.3629479,101.289652 93.4349335,100.335525 89.9375937,98.6387984 C85.3396972,109.396885 74.6274655,116.940104 62.1424415,116.940104 C49.1408434,116.940104 38.0601345,108.756788 33.8068448,97.2800125 C31.9481529,97.6726324 30.0223886,97.8773031 28.0463622,97.8773031 C12.5664521,97.8774703 0.0168773332,85.2656423 0.0168773332,69.7054862 C0.0168773332,59.2781499 5.65531865,50.1736485 14.0327965,45.3026868 C12.308081,41.3550841 11.348729,36.9979728 11.348729,32.4171284 C11.348729,14.5226563 25.9531695,0.0167883475 43.9665287,0.0167883475 C54.5424305,0.0167883475 63.9414577,5.01867916 69.9004674,12.7690766" id="Path" fill="#00A1E0"></path>
                <path d="M24.3404092,60.6504803 C24.235178,60.9242106 24.3787362,60.981398 24.4121883,61.028887 C24.7278818,61.2573021 25.0486184,61.4216741 25.3715403,61.6047741 C27.0843206,62.5089035 28.7016197,62.7729354 30.3928831,62.7729354 C33.8376073,62.7729354 35.9761873,60.9502961 35.9761873,58.0161812 L35.9761873,57.959161 C35.9761873,55.2462711 33.5625942,54.2612098 31.297098,53.5497116 L31.0029214,53.4545665 C29.2948478,52.9024238 27.8212751,52.4266983 27.8212751,51.3081997 L27.8212751,51.2488385 C27.8212751,50.2922037 28.6824561,49.5877285 30.0173456,49.5877285 C31.5005001,49.5877285 33.2611892,50.0780018 34.39503,50.7013778 C34.39503,50.7013778 34.7275336,50.9155798 34.8495749,50.5943605 C34.9164791,50.4229655 35.4907118,48.8857615 35.5505558,48.7192158 C35.6151065,48.5382896 35.5002936,48.4050195 35.3831272,48.3336189 C34.0889182,47.5507201 32.2994838,47.0152989 30.4480202,47.0152989 L30.1035814,47.0176399 C26.9506804,47.0176399 24.749903,48.911847 24.749903,51.6269107 L24.749903,51.6840981 C24.749903,54.5466452 27.1779528,55.4746863 29.4530308,56.1219741 L29.8189865,56.2338406 C31.4767979,56.7406681 32.9049834,57.176095 32.9049834,58.3374005 L32.9049834,58.3945879 C32.9049834,59.4558991 31.9768981,60.2458209 30.479287,60.2458209 C29.897994,60.2458209 28.0440088,60.2339487 26.0417587,58.9749898 C25.8000295,58.8345296 25.6589929,58.7323614 25.4724008,58.6204949 C25.374398,58.5586254 25.127962,58.4514409 25.0203774,58.7751684 L24.3404092,60.6504803 Z M74.7703513,60.6504803 C74.6651201,60.9242106 74.8086783,60.981398 74.8421304,61.028887 C75.157824,61.2573021 75.4785605,61.4216741 75.8013143,61.6047741 C77.5140947,62.5089035 79.1315618,62.7729354 80.8226571,62.7729354 C84.2673813,62.7729354 86.4061294,60.9502961 86.4061294,58.0161812 L86.4061294,57.959161 C86.4061294,55.2462711 83.9923682,54.2612098 81.726872,53.5497116 L81.4326954,53.4545665 C79.7246219,52.9024238 78.250881,52.4266983 78.250881,51.3081997 L78.250881,51.2488385 C78.250881,50.2922037 79.1120621,49.5877285 80.4469515,49.5877285 C81.930106,49.5877285 83.6907952,50.0780018 84.824804,50.7013778 C84.824804,50.7013778 85.1573076,50.9155798 85.2791808,50.5943605 C85.346085,50.4229655 85.9203178,48.8857615 85.9801617,48.7192158 C86.0448805,48.5382896 85.9298995,48.4050195 85.8127332,48.3336189 C84.5185241,47.5507201 82.7290897,47.0152989 80.8776261,47.0152989 L80.5330192,47.0176399 C77.3801182,47.0176399 75.1793409,48.911847 75.1793409,51.6269107 L75.1793409,51.6840981 C75.1793409,54.5466452 77.6073907,55.4746863 79.8824686,56.1219741 L80.2484244,56.2338406 C81.9062357,56.7406681 83.3369427,57.176095 83.3369427,58.3374005 L83.3369427,58.3945879 C83.3369427,59.4558991 82.406336,60.2458209 80.9087248,60.2458209 C80.3275999,60.2458209 78.4736148,60.2339487 76.4713646,58.9749898 C76.2296355,58.8345296 76.0862454,58.7370434 75.9045283,58.6204949 C75.8421628,58.5800289 75.5503396,58.4681623 75.4498153,58.7751684 L74.7703513,60.6504803 Z M109.197589,54.9033139 C109.197589,56.5619157 108.886603,57.8681963 108.274211,58.7915554 C107.66888,59.7053833 106.75273,60.1503414 105.475499,60.1503414 C104.195746,60.1503414 103.284303,59.7077243 102.688553,58.7915554 C102.085575,57.8707045 101.779632,56.5619157 101.779632,54.9033139 C101.779632,53.2472204 102.085575,51.9431136 102.688553,51.0292857 C103.284303,50.1251563 104.195746,49.6848802 105.475499,49.6848802 C106.752898,49.6848802 107.669048,50.1251563 108.276733,51.0292857 C108.886771,51.9429464 109.197589,53.2470532 109.197589,54.9033139 Z M112.073124,51.828906 C111.790714,50.8792942 111.350626,50.0417162 110.764626,49.3445985 C110.178458,48.6449725 109.436965,48.0834658 108.556452,47.6741244 C107.678461,47.2672913 106.640438,47.0602796 105.475499,47.0602796 C104.308038,47.0602796 103.269846,47.2672913 102.391855,47.6741244 C101.511511,48.0834658 100.770018,48.6451397 100.181496,49.3445985 C99.5978497,50.0442244 99.1575934,50.8818024 98.8729985,51.828906 C98.5931105,52.7735014 98.4519057,53.8062188 98.4519057,54.9033139 C98.4519057,56.000409 98.5931105,57.0354675 98.8729985,57.9777219 C99.1575934,58.9248255 99.5954963,59.7625707 100.184018,60.4620294 C100.770018,61.1616554 101.514032,61.720821 102.392023,62.118123 C103.2722,62.5155921 104.308038,62.7177546 105.475667,62.7177546 C106.640606,62.7177546 107.676444,62.5155921 108.556621,62.118123 C109.434612,61.720821 110.178458,61.1614882 110.764794,60.4620294 C111.350794,59.7647445 111.790882,58.9271665 112.073292,57.9777219 C112.355702,57.0331265 112.496738,55.9979008 112.496738,54.9033139 C112.496738,53.8087271 112.355365,52.7735014 112.073124,51.828906 Z M135.685757,59.7073899 C135.590108,59.4289775 135.319801,59.5336539 135.319801,59.5336539 C134.90123,59.6931766 134.456099,59.8406599 133.982558,59.9144016 C133.501622,59.987976 132.972944,60.0262681 132.40594,60.0262681 C131.013896,60.0262681 129.908632,59.6145857 129.116877,58.8007522 C128.3226,57.9869187 127.877637,56.6711069 127.882344,54.8911073 C127.887219,53.2706304 128.279398,52.0521375 128.985254,51.1242636 C129.686235,50.2010717 130.753171,49.7273527 132.176482,49.7273527 C133.363106,49.7273527 134.267321,49.8629638 135.214402,50.1604386 C135.214402,50.1604386 135.441674,50.2579247 135.549259,49.9629581 C135.800402,49.2680142 135.986994,48.7707179 136.254947,48.0068815 C136.331601,47.7903386 136.145009,47.6975345 136.077936,47.6712818 C135.704752,47.5261395 134.824408,47.2907013 134.159401,47.190707 C133.537427,47.0955619 132.810222,47.0455647 132.001657,47.0455647 C130.793348,47.0455647 129.716997,47.2502354 128.79614,47.6595768 C127.877469,48.0664099 127.097649,48.6279166 126.48055,49.3277098 C125.863284,50.0273357 125.39445,50.8647465 125.08111,51.8118501 C124.770123,52.7564455 124.612276,53.7940122 124.612276,54.8911073 C124.612276,57.2635482 125.255767,59.1813327 126.526105,60.5854338 C127.798629,61.9942169 129.710105,62.7103971 132.202874,62.7103971 C133.676447,62.7103971 135.188346,62.4130896 136.274446,61.9870267 C136.274446,61.9870267 136.482555,61.8870324 136.391613,61.6469122 L135.685757,59.7073899 Z M140.71685,53.3144407 C140.853179,52.3935898 141.109197,51.6272452 141.503898,51.0301218 C142.099648,50.1234841 143.00857,49.6261879 144.286137,49.6261879 C145.563704,49.6261879 146.408075,50.1258251 147.013238,51.0301218 C147.415167,51.6272452 147.589824,52.4270327 147.65925,53.3144407 L140.71685,53.3144407 Z M150.398118,51.2893044 C150.154204,50.3731356 149.548872,49.4474354 149.151818,49.0238808 C148.52497,48.3528486 147.912746,47.884146 147.305061,47.6222879 C146.510784,47.2843472 145.558661,47.0607812 144.515762,47.0607812 C143.300561,47.0607812 142.197651,47.2631109 141.303018,47.6818163 C140.406031,48.1006889 139.652603,48.6718941 139.06156,49.3833922 C138.470517,50.0923822 138.025722,50.9371505 137.743312,51.8961263 C137.458717,52.8504201 137.315159,53.8903278 137.315159,54.9870885 C137.315159,56.103246 137.463592,57.1431537 137.757769,58.0782179 C138.054467,59.0206394 138.528007,59.8510272 139.169144,60.5386137 C139.80776,61.2312167 140.630782,61.7738281 141.616358,62.1519003 C142.594873,62.527966 143.783851,62.7231055 145.149671,62.7205972 C147.960655,62.711066 149.441288,62.0876899 150.051326,61.7520902 C150.159079,61.692729 150.261956,61.5880526 150.132519,61.2882368 L149.496257,59.5152603 C149.400775,59.2512284 149.130301,59.3487145 149.130301,59.3487145 C148.434027,59.6057234 147.443913,60.0674029 145.135214,60.0627209 C143.625836,60.0603799 142.506116,59.6177628 141.805135,58.9251599 C141.085159,58.2161699 140.733492,57.173754 140.671294,55.7032687 L150.405178,55.7127999 C150.405178,55.7127999 150.661028,55.7081179 150.687588,55.460473 C150.69717,55.3561311 151.022613,53.4714552 150.398118,51.2893044 Z M62.7625658,53.3144407 C62.9012491,52.3935898 63.1549134,51.6272452 63.5496144,51.0301218 C64.145196,50.1234841 65.0542858,49.6261879 66.3316847,49.6261879 C67.6090837,49.6261879 68.4536228,50.1258251 69.0611395,51.0301218 C69.4605473,51.6272452 69.6352042,52.4270327 69.7046299,53.3144407 L62.7625658,53.3144407 Z M72.441313,51.2893044 C72.1973985,50.3731356 71.5945886,49.4474354 71.1975342,49.0238808 C70.5706858,48.3528486 69.9582942,47.884146 69.3507774,47.6222879 C68.5565005,47.2843472 67.604545,47.0607812 66.5614787,47.0607812 C65.3486305,47.0607812 64.2433669,47.2631109 63.3487338,47.6818163 C62.4517472,48.1006889 61.6981508,48.6718941 61.107276,49.3833922 C60.5164012,50.0923822 60.0714381,50.9371505 59.7891966,51.8961263 C59.5069552,52.8504201 59.3610436,53.8903278 59.3610436,54.9870885 C59.3610436,56.103246 59.5093086,57.1431537 59.8036533,58.0782179 C60.1003515,59.0206394 60.5740599,59.8510272 61.2150287,60.5386137 C61.8538122,61.2312167 62.6766663,61.7738281 63.662242,62.1519003 C64.6407575,62.527966 65.8295673,62.7231055 67.1955554,62.7205972 C70.006371,62.711066 71.4871721,62.0876899 72.0972104,61.7520902 C72.2049631,61.692729 72.3076727,61.5880526 72.1785712,61.2882368 L71.5446626,59.5152603 C71.4464917,59.2512284 71.1763535,59.3487145 71.1763535,59.3487145 C70.4802475,59.6057234 69.4921503,60.0674029 67.1789134,60.0627209 C65.6718886,60.0603799 64.5523364,59.6177628 63.8513556,58.9251599 C63.1312112,58.2161699 62.7797121,57.173754 62.7173467,55.7032687 L72.4512309,55.7127999 C72.4512309,55.7127999 72.7070805,55.7081179 72.7334724,55.460473 C72.7427179,55.3561311 73.0679932,53.4714552 72.441313,51.2893044 Z M41.7228856,59.6543828 C41.3424732,59.3520588 41.2898576,59.2759761 41.1607561,59.0808367 C40.9692892,58.7833619 40.8712863,58.3598073 40.8712863,57.8220451 C40.8712863,56.9700866 41.1535278,56.3585827 41.7396957,55.9469004 C41.7326355,55.9494086 42.5770064,55.2211889 44.5624465,55.2472744 C45.9570118,55.2663369 47.2033121,55.4710076 47.2033121,55.4710076 L47.2033121,59.8732668 L47.2056655,59.8732668 C47.2056655,59.8732668 45.968947,60.1372986 44.5767351,60.2205715 C42.5960018,60.3396283 41.7156573,59.6520418 41.7228856,59.6543828 Z M45.5957629,52.851089 C45.2010619,52.8224953 44.6890265,52.8057738 44.0766348,52.8057738 C43.2418456,52.8057738 42.4356336,52.9104501 41.6796837,53.1127798 C40.919027,53.3149423 40.2348562,53.6316468 39.6463349,54.050185 C39.0587066,54.4673958 38.575731,55.013801 38.2349595,55.6469173 C37.8905207,56.2846739 37.7158638,57.036638 37.7158638,57.8790652 C37.7158638,58.7357057 37.8641288,59.4804796 38.160827,60.0898097 C38.4575251,60.7013135 38.8856782,61.210482 39.4309976,61.6032692 C39.9716102,61.9958891 40.6391389,62.2836654 41.4140842,62.4574014 C42.1772624,62.6311374 43.0431503,62.7190923 43.9905671,62.7190923 C44.988078,62.7190923 45.9832355,62.6383276 46.9472944,62.4739557 C47.9017714,62.3120919 49.0739392,62.0764865 49.3992145,62.0029121 C49.6273087,61.9482394 49.8546045,61.8903214 50.0810319,61.8291761 C50.322761,61.7698149 50.3035975,61.5126389 50.3035975,61.5126389 L50.2987226,52.6582905 C50.2987226,50.7164272 49.7772735,49.2767093 48.7510173,48.3844521 C47.729468,47.4945359 46.2247966,47.0445614 44.2800369,47.0445614 C43.5503108,47.0445614 42.3757896,47.144723 41.6724553,47.285016 C41.6724553,47.285016 39.5458105,47.6943574 38.6701728,48.3749209 C38.6701728,48.3749209 38.4788739,48.4939777 38.5841051,48.7605178 L39.2731508,50.6023868 C39.3592185,50.8403332 39.5913659,50.7594013 39.5913659,50.7594013 C39.5913659,50.7594013 39.6654984,50.7308076 39.7517341,50.6808105 C41.6248828,49.6671554 43.9930887,49.6980902 43.9930887,49.6980902 C45.0457367,49.6980902 45.8543021,49.9074429 46.3996215,50.3238072 C46.9306524,50.7282994 47.2009587,51.3398033 47.2009587,52.6295296 L47.2009587,53.038871 C46.3636479,52.9199814 45.5957629,52.851089 45.5957629,52.851089 Z M124.103771,47.8620737 C124.177736,47.6430225 124.02241,47.5383462 123.957691,47.5146017 C123.792784,47.4503913 122.965055,47.2766553 122.326272,47.2361894 C121.10401,47.1624477 120.424714,47.3671184 119.816861,47.6383405 C119.214051,47.9095626 118.544337,48.3473305 118.170985,48.844794 L118.170985,47.6669342 C118.170985,47.5027295 118.053819,47.3718004 117.891097,47.3718004 L115.395975,47.3718004 C115.233421,47.3718004 115.116255,47.5025622 115.116255,47.6669342 L115.116255,62.1085917 C115.116255,62.2704555 115.250231,62.4037255 115.412785,62.4037255 L117.970104,62.4037255 C118.133174,62.4028045 118.264747,62.2708031 118.264281,62.1085917 L118.264281,54.8937827 C118.264281,53.9252756 118.372034,52.9592768 118.587371,52.352455 C118.797833,51.7526561 119.08495,51.2720813 119.43897,50.9269504 C119.795344,50.5843276 120.199627,50.3440402 120.642237,50.2084292 C121.09426,50.0703099 121.594192,50.0251619 121.948381,50.0251619 C122.457895,50.0251619 123.017671,50.1559238 123.017671,50.1559238 C123.204095,50.1773272 123.309494,50.0631197 123.371523,49.8942329 C123.53912,49.4516158 124.012829,48.1261055 124.103771,47.8620737 Z" id="Shape" fill="#FFFFFF" fill-rule="nonzero"></path>
                <path d="M100.099799,41.168807 C99.7888124,41.0736619 99.5065709,41.0092843 99.1380937,40.9403918 C98.7647416,40.8738404 98.3199465,40.8403975 97.8153075,40.8403975 C96.0544503,40.8403975 94.6669452,41.3353528 93.6934728,42.3108828 C92.724539,43.2818981 92.066592,44.7595737 91.7364418,46.703778 L91.6167539,47.3580888 L89.4065629,47.3580888 C89.4065629,47.3580888 89.13861,47.3485576 89.0811195,47.6390094 L88.7200387,49.6544471 C88.6936469,49.8449046 88.7775292,49.9661352 89.0357323,49.9661352 L91.1864155,49.9661352 L89.0046336,62.0830079 C88.8346835,63.0587052 88.6385098,63.8606665 88.4208191,64.4696621 C88.2078352,65.069461 87.9998943,65.5191011 87.7415232,65.8475106 C87.4927338,66.1617068 87.258233,66.394804 86.8514288,66.5304151 C86.5165717,66.6422816 86.1290991,66.6946198 85.7056529,66.6946198 C85.4711521,66.6946198 85.1579801,66.6563277 84.9258327,66.6088387 C84.6962068,66.5635235 84.5741655,66.5136936 84.3995087,66.4397847 C84.3995087,66.4397847 84.1483659,66.3448068 84.0478415,66.5946255 C83.9688341,66.8016372 83.3947694,68.3696086 83.3253437,68.5625743 C83.2584396,68.7552055 83.354089,68.905197 83.4759622,68.950345 C83.7630786,69.0503393 83.9758943,69.1168907 84.3658885,69.2096948 C84.9066692,69.3359419 85.3633994,69.3429649 85.7915524,69.3429649 C86.6861856,69.3429649 87.5043328,69.2168851 88.1814433,68.9742567 C88.8609073,68.72912 89.4539674,68.3030572 89.9802914,67.7273373 C90.5472958,67.103794 90.9036698,66.4518242 91.2435698,65.559567 C91.5807803,64.6790148 91.8704182,63.5844279 92.099876,62.3090821 L94.2935931,49.9661352 L97.4991097,49.9661352 C97.4991097,49.9661352 97.7692479,49.9756664 97.8245531,49.6830408 L98.1879873,47.6699441 C98.2120257,47.4773128 98.1306649,47.358256 97.8697722,47.358256 L94.7575516,47.358256 C94.7743617,47.2893636 94.9153984,46.1992915 95.2719405,45.1739315 C95.4250804,44.7385046 95.7120287,44.3838424 95.9537578,44.1410468 C96.1931336,43.9031004 96.4681467,43.7342137 96.7697197,43.6365603 C97.0781849,43.536566 97.4300202,43.489077 97.8151394,43.489077 C98.1069626,43.489077 98.3962643,43.5223527 98.613955,43.5675007 C98.91536,43.6318783 99.0325263,43.665154 99.1117019,43.6890657 C99.4299169,43.7842108 99.4727827,43.6914067 99.5351481,43.5392414 L100.279163,41.5070822 C100.355649,41.2876966 100.166703,41.1948925 100.099799,41.168807 Z M56.6154511,62.1092606 C56.6154511,62.2711244 56.4982848,62.4020534 56.3355631,62.4020534 L53.7543733,62.4020534 C53.5916516,62.4020534 53.4768387,62.2711244 53.4768387,62.1092606 L53.4768387,41.4448783 C53.4768387,41.2831818 53.5916516,41.1522528 53.7543733,41.1522528 L56.3355631,41.1522528 C56.4982848,41.1522528 56.6154511,41.2831818 56.6154511,41.4448783 L56.6154511,62.1092606 Z" id="Shape" fill="#FFFFFF" fill-rule="nonzero"></path>
            </g>
        </g>
    </g>
</svg>