<?xml version="1.0" encoding="UTF-8"?>
<svg width="300px" height="120px" viewBox="0 0 300 120" version="1.1" xmlns="http://www.w3.org/2000/svg" xmlns:xlink="http://www.w3.org/1999/xlink">
    <!-- Generator: Sketch 52.6 (67491) - http://www.bohemiancoding.com/sketch -->
    <title>Group 6</title>
    <desc>Created with Sketch.</desc>
    <g id="Page-1" stroke="none" stroke-width="1" fill="none" fill-rule="evenodd">
        <g id="Group-6" fill-rule="nonzero">
            <rect id="Rectangle-Copy-9" fill="#FFFFFF" x="0" y="0" width="300" height="120"></rect>
            <g id="samsung" transform="translate(6.000000, 12.000000)" fill="#2D4F9E">
                <path d="M287.502806,22.7391045 C283.591164,0.277970149 216.103164,-6.73146269 136.758448,7.08250746 C103.436418,12.8869254 73.3482985,21.4481194 49.9171343,31.0796418 C53.5164179,31.1584478 56.185791,31.9837612 57.8077612,33.6014328 C59.0758209,34.8709254 59.7162985,36.6132537 59.7162985,38.784 L59.7162985,41.0120597 L51.936,41.0120597 L51.936,39.0447761 C51.936,37.4056119 50.9530746,36.3897313 49.2121791,36.3897313 C47.7492537,36.3897313 46.848,37.0502687 46.5571343,38.3512836 C46.4596515,38.8655849 46.4703871,39.394555 46.5886567,39.9044776 C47.4211343,43.3074627 58.9740896,45.4208955 60.2306866,51.7010149 C60.3954627,52.5091343 60.6189851,54.2385672 60.2665075,56.7130746 C59.545791,61.7781493 55.095403,63.7325373 49.4299701,63.7325373 C41.5221493,63.7325373 38.3097313,59.9871045 38.3097313,54.8231642 L38.3154627,52.3801791 L46.656,52.3801791 L46.6602985,55.4235224 C46.6602985,57.1343284 47.904,58.0785672 49.5976119,58.0785672 C51.2023881,58.0785672 52.1394627,57.4323582 52.4632836,56.1112836 C52.6137313,55.5037612 52.6796418,54.6082388 52.4059701,53.9233433 C50.862806,50.0518209 40.0749851,48.2435821 38.7467463,41.9835224 C38.4501493,40.5764776 38.425791,39.3786269 38.6722388,37.8641194 C38.7986831,37.1133653 39.0312187,36.3844002 39.3628657,35.6991045 C13.3726567,47.8538507 -1.83116418,61.2279403 0.177671642,72.7751642 C4.09361194,95.2391642 71.5801791,102.241433 150.923463,88.4274627 C185.801552,82.3565373 217.157731,73.2680597 241.021612,63.0834627 C240.676299,63.1006567 240.341015,63.1379104 239.982806,63.1379104 C234.552358,63.1379104 229.703642,61.1032836 229.200716,55.5524776 C229.111881,54.5423284 229.096119,54.1196418 229.093254,53.5436418 L229.096119,40.782806 C229.096119,40.232597 229.160597,39.2668657 229.222209,38.7682388 C229.865552,33.4037015 234.106746,31.191403 239.985672,31.191403 C244.534925,31.191403 250.112955,32.4967164 250.726209,38.7725373 C250.807881,39.560597 250.799284,40.4016716 250.797851,40.678209 L250.797851,41.8832239 L242.940179,41.8832239 L242.940179,40.0850149 C242.940179,40.0463284 242.928716,39.3743284 242.842746,38.9545075 C242.713791,38.3140299 242.167881,36.8296119 239.929791,36.8296119 C237.718925,36.8296119 237.145791,38.3168955 237.002507,38.9559403 C236.920836,39.3069851 236.882149,39.8113433 236.882149,40.3701493 L236.882149,54.2385672 C236.874985,54.72 236.899343,55.0968358 236.94806,55.3733731 C236.986746,55.5911642 237.383642,57.5025672 239.957015,57.5025672 C242.511761,57.5025672 242.907224,55.5911642 242.943045,55.3733731 C243.010388,54.9979701 243.018985,54.5509254 243.016119,54.2385672 L243.016119,49.9414925 L239.92406,49.9414925 L239.92406,45.3134328 L250.85803,45.3134328 L250.85803,53.5465075 C250.855164,54.1067463 250.846567,54.5208358 250.752,55.5524776 C250.620179,57.0082388 250.161672,58.2404776 249.442388,59.2936119 C274.750567,47.2764179 289.485851,34.1186866 287.502806,22.7391045 Z M81.7647761,62.5475821 L77.7843582,35.5013731 L77.6410746,35.5013731 L73.5589254,62.5475821 L65.1696716,62.5475821 L70.8121791,32.0038209 L84.5000597,32.0038209 L90.1081791,62.5475821 L81.7647761,62.5475821 Z M122.116299,62.5475821 L121.931463,36.0243582 L121.796776,36.0243582 L116.860657,62.5475821 L108.987224,62.5475821 L104.075463,36.0243582 L103.935045,36.0243582 L103.75594,62.5475821 L95.9541493,62.5475821 L96.6304478,32.0038209 L109.179224,32.0038209 L112.832955,54.6927761 L113.01206,54.6927761 L116.675821,32.0038209 L129.218866,32.0038209 L129.892299,62.5475821 L122.116299,62.5475821 Z M158.855642,56.6285373 C158.016,62.5447164 152.220179,63.5792239 148.123701,63.5792239 C141.32203,63.5792239 137.115224,60.672 137.115224,54.7558209 L137.119522,52.3429254 L145.359761,52.3429254 L145.365493,55.3490149 C145.365493,56.9810149 146.51606,57.9797015 148.292776,57.9797015 C149.877493,57.9797015 150.80597,57.3435224 151.128358,56.0367761 C151.277373,55.4278209 151.338985,54.5394627 151.075343,53.8688955 C149.556537,50.0704478 138.853254,48.209194 137.552239,42.0465672 C137.254209,40.6495522 137.232716,39.4631642 137.477731,37.9644179 C138.383284,32.377791 143.744955,31.217194 148.060657,31.217194 C151.920716,31.217194 154.730507,32.0597015 156.415522,33.7447164 C157.672119,35.0027463 158.308299,36.7293134 158.308299,38.8771343 L158.308299,41.0808358 L150.602507,41.0808358 L150.602507,39.1364776 C150.602507,37.4715224 149.569433,36.5086567 147.908776,36.5086567 C146.435821,36.5086567 145.544597,37.1634627 145.252299,38.4515821 C145.15743,38.9605749 145.17012,39.4837869 145.289552,39.9875821 C146.114866,43.374806 157.56609,45.4452537 158.819821,51.6666269 C158.981731,52.4604179 159.203821,54.1640597 158.855642,56.6285373 Z M187.394866,53.8531343 C187.406328,54.4262687 187.350448,55.5711045 187.318925,55.8648358 C186.848955,60.8969552 183.249672,63.4545672 176.648597,63.4545672 C170.021731,63.4545672 166.419582,60.8969552 165.952478,55.8648358 C165.899541,55.1975108 165.874206,54.528283 165.876537,53.8588657 L165.87639,31.9966567 L173.76,31.9966567 L173.76,54.5480597 C173.751403,55.0524179 173.777194,55.4249552 173.827343,55.6842985 C173.924776,56.185791 174.423403,57.8134925 176.648597,57.8134925 C178.866627,57.8134925 179.365254,56.1843582 179.469851,55.6900299 C179.514269,55.4235224 179.541493,55.0323582 179.541493,54.5466269 L179.541493,31.9966567 L187.394866,31.9966567 L187.394866,53.8531343 Z M221.360239,62.2366567 L210.390448,62.2366567 L203.027104,38.0432239 L202.903881,38.0432239 L203.312239,62.2366567 L195.666627,62.2366567 L195.666627,32.0038209 L207.096358,32.0038209 L213.902328,55.2444179 L214.061373,55.2444179 L213.658746,32.0038209 L221.360239,32.0038209 L221.360239,62.2366567 Z" id="Shape"></path>
            </g>
        </g>
    </g>
</svg>