<?xml version="1.0" encoding="UTF-8"?>
<svg width="300px" height="120px" viewBox="0 0 300 120" version="1.1" xmlns="http://www.w3.org/2000/svg" xmlns:xlink="http://www.w3.org/1999/xlink">
    <!-- Generator: Sketch 52.6 (67491) - http://www.bohemiancoding.com/sketch -->
    <title>Group 7</title>
    <desc>Created with Sketch.</desc>
    <g id="Page-1" stroke="none" stroke-width="1" fill="none" fill-rule="evenodd">
        <g id="Group-7">
            <rect id="Rectangle-Copy-10" fill="#FFFFFF" fill-rule="nonzero" x="0" y="0" width="300" height="120"></rect>
            <g id="microsoft" transform="translate(12.000000, 31.000000)">
                <path d="M275.932201,26.6535837 L275.932201,21.8000995 L269.906112,21.8000995 L269.906112,14.2547738 L269.70325,14.3172443 L264.043114,16.0493348 L263.93154,16.0832398 L263.93154,21.8003665 L254.997841,21.8003665 L254.997841,18.6154344 C254.997841,17.1324253 255.329362,15.997543 255.982793,15.2406878 C256.631687,14.4929095 257.559783,14.1127466 258.743594,14.1127466 C259.594549,14.1127466 260.475667,14.3132398 261.362391,14.7086199 L261.584739,14.8079321 L261.584739,9.69655656 L261.480104,9.65811312 C260.652905,9.36071041 259.527818,9.21094118 258.133137,9.21094118 C256.375439,9.21094118 254.778429,9.59350679 253.385617,10.3516968 C251.992004,11.1109548 250.895745,12.1948462 250.127803,13.5729367 C249.36253,14.9494253 248.974155,16.5392217 248.974155,18.298543 L248.974155,21.8000995 L244.778101,21.8000995 L244.778101,26.6535837 L248.974155,26.6535837 L248.974155,47.1004208 L254.997841,47.1004208 L254.997841,26.6535837 L263.93154,26.6535837 L263.93154,39.6471991 C263.93154,44.9985792 266.455311,47.7104434 271.432654,47.7104434 C272.250511,47.7104434 273.111342,47.6146018 273.990325,47.4269231 C274.885056,47.2341719 275.494445,47.0416878 275.853191,46.8361222 L275.932468,46.7891357 L275.932468,41.8908009 L275.687431,42.0528507 C275.360449,42.2706968 274.953389,42.4487647 274.476128,42.581181 C273.996731,42.716 273.596344,42.783543 273.286178,42.783543 C272.120251,42.783543 271.257551,42.4693213 270.722368,41.8491538 C270.181044,41.2233801 269.906379,40.1290769 269.906379,38.5982805 L269.906379,26.6535837 L275.932201,26.6535837 Z M231.32617,42.7843439 C229.139791,42.7843439 227.415992,42.0592579 226.201219,40.6309774 C224.978971,39.1954887 224.359706,37.1489095 224.359706,34.548638 C224.359706,31.8658733 224.978971,29.7661674 226.201752,28.3053167 C227.417327,26.8540769 229.124576,26.1175113 231.277056,26.1175113 C233.365741,26.1175113 235.028414,26.8209729 236.219431,28.2094751 C237.416321,29.6051855 238.023841,31.6880724 238.023841,34.4020724 C238.023841,37.1494434 237.452623,39.2598281 236.326201,40.6715566 C235.20752,42.0726063 233.525362,42.7843439 231.32617,42.7843439 Z M231.593896,21.1906109 C227.422665,21.1906109 224.109598,22.4130588 221.747315,24.8240498 C219.386634,27.2353077 218.189745,30.5721448 218.189745,34.742724 C218.189745,38.704 219.358074,41.890267 221.6627,44.2115566 C223.967327,46.5336471 227.103691,47.7099095 230.983973,47.7099095 C235.027346,47.7099095 238.274484,46.4703756 240.635698,44.0260136 C242.996646,41.5843213 244.192735,38.2789864 244.192735,34.2058507 C244.192735,30.182638 243.070317,26.9726109 240.855644,24.6668054 C238.639903,22.3599321 235.523292,21.1906109 231.593896,21.1906109 Z M208.477694,21.1906109 C205.640286,21.1906109 203.293219,21.9164977 201.500286,23.3477149 C199.69641,24.7874751 198.781393,26.6757421 198.781393,28.960724 C198.781393,30.1484661 198.978917,31.2035249 199.367559,32.0984027 C199.758603,32.9962172 200.363721,33.7867104 201.167698,34.4501267 C201.965536,35.1082036 203.197126,35.7975158 204.829103,36.4988416 C206.201095,37.0634796 207.224217,37.541086 207.874178,37.9175113 C208.509458,38.2864615 208.960294,38.6572805 209.21494,39.0184887 C209.462379,39.3719548 209.587834,39.8557014 209.587834,40.4526425 C209.587834,42.1524299 208.315137,42.9794977 205.69634,42.9794977 C204.725002,42.9794977 203.616998,42.7766018 202.403292,42.3766833 C201.198208,41.9828111 200.060818,41.4060095 199.030967,40.6664842 L198.780859,40.4870814 L198.780859,46.2875023 L198.872681,46.3302172 C199.724971,46.7237285 200.799609,47.0555701 202.066166,47.3166652 C203.330321,47.5780271 204.478897,47.7109774 205.476662,47.7109774 C208.555636,47.7109774 211.035099,46.9816199 212.844313,45.5418597 C214.665006,44.0922217 215.587764,42.159371 215.587764,39.7953665 C215.587764,38.0899729 215.091017,36.6275204 214.111938,35.4480543 C213.139532,34.2781991 211.451768,33.2041855 209.09776,32.2548462 C207.222348,31.5019955 206.020921,30.8770226 205.525242,30.3972805 C205.047447,29.9338235 204.804812,29.2784163 204.804812,28.4484118 C204.804812,27.7126471 205.104302,27.123181 205.719029,26.6458416 C206.338561,26.1660995 207.200994,25.9220905 208.282573,25.9220905 C209.286209,25.9220905 210.313068,26.0806697 211.334321,26.3914208 C212.354774,26.7021719 213.251106,27.1183756 213.999296,27.6274842 L214.2454,27.7956742 L214.2454,22.293457 L214.150909,22.2528778 C213.460642,21.95681 212.550429,21.703457 211.444828,21.4978914 C210.344298,21.2936606 209.346,21.1906109 208.477694,21.1906109 Z M183.077954,42.7843439 C180.892108,42.7843439 179.167776,42.0592579 177.953269,40.6309774 C176.730754,39.1954887 176.112557,37.1494434 176.112557,34.548638 C176.112557,31.8658733 176.731555,29.7661674 177.954603,28.3053167 C179.16911,26.8540769 180.876093,26.1175113 183.02964,26.1175113 C185.117524,26.1175113 186.780197,26.8209729 187.971482,28.2094751 C189.168638,29.6051855 189.775892,31.6880724 189.775892,34.4020724 C189.775892,37.1494434 189.204406,39.2598281 188.077985,40.6715566 C186.959304,42.0726063 185.277946,42.7843439 183.077954,42.7843439 Z M183.34648,21.1906109 C179.174182,21.1906109 175.860847,22.4130588 173.499899,24.8240498 C171.139219,27.2353077 169.941528,30.5721448 169.941528,34.742724 C169.941528,38.7056018 171.110658,41.890267 173.415284,44.2115566 C175.719911,46.5336471 178.856008,47.7099095 182.73629,47.7099095 C186.77913,47.7099095 190.027068,46.4703756 192.388282,44.0260136 C194.748696,41.5843213 195.945319,38.2789864 195.945319,34.2058507 C195.945319,30.182638 194.822634,26.9726109 192.607427,24.6668054 C190.391153,22.3599321 187.275075,21.1906109 183.34648,21.1906109 Z M160.79776,26.1815837 L160.79776,21.8000995 L154.847478,21.8000995 L154.847478,47.0998869 L160.79776,47.0998869 L160.79776,34.1580633 C160.79776,31.9574434 161.296642,30.1495339 162.28106,28.783991 C163.252932,27.434733 164.54805,26.7510271 166.129311,26.7510271 C166.665296,26.7510271 167.266944,26.8393937 167.918507,27.0142579 C168.563397,27.1880543 169.030515,27.3768009 169.305981,27.5754253 L169.556089,27.7566968 L169.556089,21.7568507 L169.459729,21.7154706 C168.905594,21.4800045 168.121636,21.3612036 167.129745,21.3612036 C165.634433,21.3612036 164.29634,21.8417466 163.150166,22.7878824 C162.144128,23.6194887 161.417025,24.7597104 160.861021,26.1815837 L160.79776,26.1815837 Z M144.191582,21.1906109 C141.461745,21.1906109 139.026859,21.7760724 136.955791,22.9301765 C134.880453,24.0869502 133.275435,25.7384163 132.183447,27.8383891 C131.096263,29.9332896 130.544263,32.3803213 130.544263,35.1092715 C130.544263,37.4997059 131.079447,39.6933846 132.137269,41.6267692 C133.195625,43.5633575 134.693605,45.0784027 136.589838,46.12919 C138.4834,47.1786425 140.671915,47.7107104 143.095056,47.7107104 C145.922855,47.7107104 148.337188,47.1452715 150.272925,46.0301448 L150.351133,45.9852941 L150.351133,40.533 L150.101025,40.7156063 C149.224178,41.3544615 148.244298,41.864371 147.189946,42.2317195 C146.138263,42.5988009 145.17947,42.7843439 144.338658,42.7843439 C142.003868,42.7843439 140.129524,42.0536516 138.76901,40.6130905 C137.405559,39.1706606 136.714224,37.1451719 136.714224,34.5964253 C136.714224,32.0316606 137.435188,29.9541131 138.856027,28.421181 C140.272596,26.8927873 142.15041,26.1175113 144.436886,26.1175113 C146.392642,26.1175113 148.298484,26.7798597 150.101559,28.0880045 L150.351133,28.269276 L150.351133,22.5243846 L150.270522,22.479 C149.592,22.0991041 148.666573,21.7854163 147.517729,21.5475475 C146.373691,21.3102127 145.254743,21.1906109 144.191582,21.1906109 Z M126.44617,21.8003665 L120.495888,21.8003665 L120.495888,47.0998869 L126.44617,47.0998869 L126.44617,21.8003665 Z M123.531888,11.0225882 C122.552542,11.0225882 121.698383,11.3560317 120.996638,12.0167783 C120.291957,12.6793937 119.934545,13.5136697 119.934545,14.4982489 C119.934545,15.4673439 120.287687,16.2864027 120.985694,16.9313982 C121.679164,17.5745249 122.535992,17.9004932 123.532155,17.9004932 C124.52805,17.9004932 125.388081,17.5745249 126.089826,16.9324661 C126.796108,16.2864027 127.154321,15.4676109 127.154321,14.4982489 C127.154321,13.5481086 126.805718,12.7223756 126.118921,12.0434751 C125.432658,11.3659095 124.56195,11.0225882 123.531888,11.0225882 Z M108.685544,19.933724 L108.685544,47.0998869 L114.758077,47.0998869 L114.758077,11.7970633 L106.353424,11.7970633 L95.6705687,38.0189593 L85.3034855,11.7970633 L76.5566344,11.7970633 L76.5566344,47.0998869 L82.2632147,47.0996199 L82.2632147,19.9310543 L82.4591373,19.9310543 L93.4065145,47.0998869 L97.7130754,47.0998869 L108.489621,19.933724 L108.685544,19.933724 Z" id="Shape" fill="#706D6E" fill-rule="nonzero"></path>
                <polygon id="Path" fill="#F1511B" points="27.9918453 27.9964344 0 27.9964344 0 0 27.9918453 0"></polygon>
                <polygon id="Path" fill="#80CC28" points="58.8979729 27.9964344 30.9066615 27.9964344 30.9066615 0 58.8979729 0"></polygon>
                <polygon id="Path" fill="#00ADEF" points="27.9910445 58.9185747 0 58.9185747 0 30.9224072 27.9910445 30.9224072"></polygon>
                <polygon id="Path" fill="#FBBC09" points="58.8979729 58.9185747 30.9066615 58.9185747 30.9066615 30.9224072 58.8979729 30.9224072"></polygon>
            </g>
        </g>
    </g>
</svg>