<?xml version="1.0" encoding="UTF-8"?>
<svg width="300px" height="120px" viewBox="0 0 300 120" version="1.1" xmlns="http://www.w3.org/2000/svg" xmlns:xlink="http://www.w3.org/1999/xlink">
    <!-- Generator: Sketch 52.6 (67491) - http://www.bohemiancoding.com/sketch -->
    <title>Group 3</title>
    <desc>Created with Sketch.</desc>
    <g id="Page-1" stroke="none" stroke-width="1" fill="none" fill-rule="evenodd">
        <g id="Group-3" fill-rule="nonzero">
            <rect id="Rectangle-Copy-3" fill="#FFFFFF" x="0" y="0" width="300" height="120"></rect>
            <g id="slack" transform="translate(32.000000, 30.000000)">
                <path d="M75.82104,47.2132701 L78.7788,40.3412322 C81.97356,42.7298578 86.23008,43.971564 90.42972,43.971564 C93.52968,43.971564 95.49204,42.7772512 95.49204,40.9668246 C95.44464,35.9052133 76.92072,39.8672986 76.77852,27.1753555 C76.73112,20.7298578 82.45704,15.7630332 90.57192,15.7630332 C95.39724,15.7630332 100.21308,16.957346 103.65432,19.6777251 L100.88616,26.6919431 C97.7388,24.6824645 93.82356,23.2511848 90.09792,23.2511848 C87.56676,23.2511848 85.89828,24.4454976 85.89828,25.971564 C85.94568,30.9383886 104.6118,28.2180095 104.8014,40.3412322 C104.8014,46.92891 99.21768,51.563981 91.1976,51.563981 C85.32,51.5545024 79.92588,50.1706161 75.82104,47.2132701 Z M189.40092,37.8578199 C187.92204,40.436019 185.15388,42.1990521 181.94964,42.1990521 C177.21912,42.1990521 173.40816,38.3791469 173.40816,33.6587678 C173.40816,28.9383886 177.2286,25.1184834 181.94964,25.1184834 C185.1444,25.1184834 187.92204,26.8815166 189.40092,29.4597156 L197.5632,24.92891 C194.51064,19.4881517 188.63304,15.7630332 181.94964,15.7630332 C172.062,15.7630332 164.04192,23.7819905 164.04192,33.6682464 C164.04192,43.5545024 172.062,51.5734597 181.94964,51.5734597 C188.68044,51.5734597 194.51064,47.8957346 197.5632,42.4075829 L189.40092,37.8578199 Z M108.90624,0.909952607 L119.12568,0.909952607 L119.12568,50.8909953 L108.90624,50.8909953 L108.90624,0.909952607 Z M201.57324,0.909952607 L201.57324,50.8909953 L211.79268,50.8909953 L211.79268,35.8957346 L223.9176,50.8909953 L237,50.8909953 L221.57604,33.0805687 L235.85292,16.464455 L223.33932,16.464455 L211.7832,30.2559242 L211.7832,0.909952607 L201.57324,0.909952607 Z" id="Shape" fill="#000000"></path>
                <path d="M149.49012,37.9526066 C148.01124,40.3886256 144.95868,42.1990521 141.51744,42.1990521 C136.78692,42.1990521 132.97596,38.3791469 132.97596,33.6587678 C132.97596,28.9383886 136.7964,25.1184834 141.51744,25.1184834 C144.95868,25.1184834 148.01124,27.0236967 149.49012,29.507109 L149.49012,37.9526066 Z M149.49012,16.4739336 L149.49012,20.5308057 C147.82164,17.7156398 143.6694,15.7535545 139.31808,15.7535545 C130.34052,15.7535545 123.27792,23.6777251 123.27792,33.6113744 C123.27792,43.5450237 130.34052,51.563981 139.31808,51.563981 C143.65992,51.563981 147.81216,49.6113744 149.49012,46.7867299 L149.49012,50.8436019 L159.70956,50.8436019 L159.70956,16.4739336 L149.49012,16.4739336 Z" id="Shape" fill="#000000"></path>
                <g id="Group">
                    <path d="M12.6558,37.9052133 C12.6558,41.3933649 9.84024,44.2085308 6.3516,44.2085308 C2.86296,44.2085308 0.0474,41.3838863 0.0474,37.9052133 C0.0474,34.4265403 2.86296,31.6018957 6.3516,31.6018957 L12.6558,31.6018957 L12.6558,37.9052133 Z M15.80316,37.9052133 C15.80316,34.4170616 18.61872,31.6018957 22.10736,31.6018957 C25.596,31.6018957 28.41156,34.4170616 28.41156,37.9052133 L28.41156,53.6587678 C28.41156,57.1469194 25.596,59.9620853 22.10736,59.9620853 C18.61872,59.9620853 15.80316,57.1469194 15.80316,53.6587678 L15.80316,37.9052133 Z" id="Shape" fill="#E01E5A"></path>
                    <path d="M22.10736,12.6066351 C18.61872,12.6066351 15.80316,9.79146919 15.80316,6.30331754 C15.80316,2.81516588 18.61872,0 22.10736,0 C25.596,0 28.41156,2.81516588 28.41156,6.30331754 L28.41156,12.6066351 L22.10736,12.6066351 Z M22.10736,15.8009479 C25.596,15.8009479 28.41156,18.6161137 28.41156,22.1042654 C28.41156,25.5924171 25.596,28.4075829 22.10736,28.4075829 L6.3042,28.4075829 C2.81556,28.4075829 0,25.5829384 0,22.1042654 C0,18.6255924 2.81556,15.8009479 6.3042,15.8009479 L22.10736,15.8009479 Z" id="Shape" fill="#36C5F0"></path>
                    <path d="M47.36208,22.1042654 C47.36208,18.6161137 50.17764,15.8009479 53.66628,15.8009479 C57.15492,15.8009479 59.97048,18.6161137 59.97048,22.1042654 C59.97048,25.5924171 57.15492,28.4075829 53.66628,28.4075829 L47.36208,28.4075829 L47.36208,22.1042654 Z M44.21472,22.1042654 C44.21472,25.5924171 41.39916,28.4075829 37.91052,28.4075829 C34.42188,28.4075829 31.60632,25.5924171 31.60632,22.1042654 L31.60632,6.30331754 C31.60632,2.81516588 34.42188,0 37.91052,0 C41.39916,0 44.21472,2.81516588 44.21472,6.30331754 L44.21472,22.1042654 Z" id="Shape" fill="#2EB67D"></path>
                    <path d="M37.91052,47.3554502 C41.39916,47.3554502 44.21472,50.1706161 44.21472,53.6587678 C44.21472,57.1469194 41.39916,59.9620853 37.91052,59.9620853 C34.42188,59.9620853 31.60632,57.1469194 31.60632,53.6587678 L31.60632,47.3554502 L37.91052,47.3554502 Z M37.91052,44.2085308 C34.42188,44.2085308 31.60632,41.3933649 31.60632,37.9052133 C31.60632,34.4170616 34.42188,31.6018957 37.91052,31.6018957 L53.71368,31.6018957 C57.20232,31.6018957 60.01788,34.4170616 60.01788,37.9052133 C60.01788,41.3933649 57.20232,44.2085308 53.71368,44.2085308 L37.91052,44.2085308 Z" id="Shape" fill="#ECB22E"></path>
                </g>
            </g>
        </g>
    </g>
</svg>