<?xml version="1.0" encoding="UTF-8"?>
<svg width="300px" height="120px" viewBox="0 0 300 120" version="1.1" xmlns="http://www.w3.org/2000/svg" xmlns:xlink="http://www.w3.org/1999/xlink">
    <!-- Generator: Sketch 52.6 (67491) - http://www.bohemiancoding.com/sketch -->
    <title>Group 13</title>
    <desc>Created with Sketch.</desc>
    <g id="Page-1" stroke="none" stroke-width="1" fill="none" fill-rule="evenodd">
        <g id="Group-13">
            <rect id="Rectangle-Copy" fill="#FFFFFF" fill-rule="nonzero" x="0" y="0" width="300" height="120"></rect>
            <g id="aws" transform="translate(91.000000, 25.000000)">
                <path d="M33.2550993,25.4333333 C33.2550993,26.8722222 33.4108609,28.0388889 33.6834437,28.8944444 C33.9949669,29.75 34.3843709,30.6833333 34.9295364,31.6944444 C35.1242384,32.0055556 35.2021192,32.3166667 35.2021192,32.5888889 C35.2021192,32.9777778 34.9684768,33.3666667 34.4622517,33.7555556 L32.0090066,35.3888889 C31.658543,35.6222222 31.3080795,35.7388889 30.9965563,35.7388889 C30.6071523,35.7388889 30.2177483,35.5444444 29.8283444,35.1944444 C29.2831788,34.6111111 28.815894,33.9888889 28.4264901,33.3666667 C28.0370861,32.7055556 27.6476821,31.9666667 27.2193377,31.0722222 C24.1819868,34.65 20.3658278,36.4388889 15.7708609,36.4388889 C12.4998675,36.4388889 9.89086093,35.5055556 7.98278146,33.6388889 C6.07470199,31.7722222 5.10119205,29.2833333 5.10119205,26.1722222 C5.10119205,22.8666667 6.26940397,20.1833333 8.64476821,18.1611111 C11.0201325,16.1388889 14.1743046,15.1277778 18.1851656,15.1277778 C19.5091391,15.1277778 20.872053,15.2444444 22.3128477,15.4388889 C23.7536424,15.6333333 25.2333775,15.9444444 26.7909934,16.2944444 L26.7909934,13.4555556 C26.7909934,10.5 26.167947,8.43888889 24.9607947,7.23333333 C23.714702,6.02777778 21.6119205,5.44444444 18.6135099,5.44444444 C17.250596,5.44444444 15.8487417,5.6 14.407947,5.95 C12.9671523,6.3 11.565298,6.72777778 10.2023841,7.27222222 C9.57933775,7.54444444 9.11205298,7.7 8.8394702,7.77777778 C8.56688742,7.85555556 8.37218543,7.89444444 8.21642384,7.89444444 C7.67125828,7.89444444 7.3986755,7.50555556 7.3986755,6.68888889 L7.3986755,4.78333333 C7.3986755,4.16111111 7.47655629,3.69444444 7.67125828,3.42222222 C7.86596026,3.15 8.21642384,2.87777778 8.7615894,2.60555556 C10.1245033,1.90555556 11.76,1.32222222 13.6680795,0.855555556 C15.5761589,0.35 17.6010596,0.116666667 19.7427815,0.116666667 C24.3766887,0.116666667 27.7645033,1.16666667 29.9451656,3.26666667 C32.0868874,5.36666667 33.1772185,8.55555556 33.1772185,12.8333333 L33.1772185,25.4333333 L33.2550993,25.4333333 Z M17.445298,31.3444444 C18.7303311,31.3444444 20.0543046,31.1111111 21.4561589,30.6444444 C22.8580132,30.1777778 24.104106,29.3222222 25.1554967,28.1555556 C25.778543,27.4166667 26.2458278,26.6 26.4794702,25.6666667 C26.7131126,24.7333333 26.8688742,23.6055556 26.8688742,22.2833333 L26.8688742,20.65 C25.7396026,20.3777778 24.5324503,20.1444444 23.2863576,19.9888889 C22.0402649,19.8333333 20.8331126,19.7555556 19.6259603,19.7555556 C17.0169536,19.7555556 15.1088742,20.2611111 13.8238411,21.3111111 C12.5388079,22.3611111 11.9157616,23.8388889 11.9157616,25.7833333 C11.9157616,27.6111111 12.3830464,28.9722222 13.3565563,29.9055556 C14.2911258,30.8777778 15.6540397,31.3444444 17.445298,31.3444444 Z M48.7144371,35.5444444 C48.0135099,35.5444444 47.5462252,35.4277778 47.234702,35.1555556 C46.9231788,34.9222222 46.650596,34.3777778 46.4169536,33.6388889 L37.2659603,3.57777778 C37.0323179,2.8 36.9154967,2.29444444 36.9154967,2.02222222 C36.9154967,1.4 37.2270199,1.05 37.8500662,1.05 L41.6662252,1.05 C42.4060927,1.05 42.9123179,1.16666667 43.1849007,1.43888889 C43.4964238,1.67222222 43.7300662,2.21666667 43.9637086,2.95555556 L50.5056954,28.7 L56.5803974,2.95555556 C56.7750993,2.17777778 57.0087417,1.67222222 57.3202649,1.43888889 C57.6317881,1.20555556 58.1769536,1.05 58.8778808,1.05 L61.9931126,1.05 C62.7329801,1.05 63.2392053,1.16666667 63.5507285,1.43888889 C63.8622517,1.67222222 64.1348344,2.21666667 64.290596,2.95555556 L70.4431788,29.0111111 L77.1798675,2.95555556 C77.4135099,2.17777778 77.6860927,1.67222222 77.9586755,1.43888889 C78.2701987,1.20555556 78.7764238,1.05 79.477351,1.05 L83.0988079,1.05 C83.7218543,1.05 84.0723179,1.36111111 84.0723179,2.02222222 C84.0723179,2.21666667 84.0333775,2.41111111 83.9944371,2.64444444 C83.9554967,2.87777778 83.8776159,3.18888889 83.7218543,3.61666667 L74.3372185,33.6777778 C74.1035762,34.4555556 73.8309934,34.9611111 73.5194702,35.1944444 C73.207947,35.4277778 72.7017219,35.5833333 72.0397351,35.5833333 L68.6908609,35.5833333 C67.9509934,35.5833333 67.4447682,35.4666667 67.133245,35.1944444 C66.8217219,34.9222222 66.5491391,34.4166667 66.3933775,33.6388889 L60.3576159,8.55555556 L54.3607947,33.6 C54.1660927,34.3777778 53.9324503,34.8833333 53.6209272,35.1555556 C53.309404,35.4277778 52.7642384,35.5444444 52.0633113,35.5444444 L48.7144371,35.5444444 Z M98.7528477,36.5944444 C96.727947,36.5944444 94.7030464,36.3611111 92.7560265,35.8944444 C90.8090066,35.4277778 89.2903311,34.9222222 88.2778808,34.3388889 C87.6548344,33.9888889 87.2264901,33.6 87.0707285,33.25 C86.9149669,32.9 86.8370861,32.5111111 86.8370861,32.1611111 L86.8370861,30.1777778 C86.8370861,29.3611111 87.1486093,28.9722222 87.7327152,28.9722222 C87.9663576,28.9722222 88.2,29.0111111 88.4336424,29.0888889 C88.6672848,29.1666667 89.0177483,29.3222222 89.4071523,29.4777778 C90.7311258,30.0611111 92.1719205,30.5277778 93.690596,30.8388889 C95.2482119,31.15 96.7668874,31.3055556 98.3245033,31.3055556 C100.777748,31.3055556 102.685828,30.8777778 104.009801,30.0222222 C105.333775,29.1666667 106.034702,27.9222222 106.034702,26.3277778 C106.034702,25.2388889 105.684238,24.3444444 104.983311,23.6055556 C104.282384,22.8666667 102.958411,22.2055556 101.050331,21.5833333 L95.4039735,19.8333333 C92.5613245,18.9388889 90.458543,17.6166667 89.1735099,15.8666667 C87.8884768,14.1555556 87.2264901,12.25 87.2264901,10.2277778 C87.2264901,8.59444444 87.5769536,7.15555556 88.2778808,5.91111111 C88.9788079,4.66666667 89.9133775,3.57777778 91.0815894,2.72222222 C92.2498013,1.82777778 93.5737748,1.16666667 95.1313907,0.7 C96.6890066,0.233333333 98.3245033,0.0388888889 100.037881,0.0388888889 C100.89457,0.0388888889 101.790199,0.0777777778 102.646887,0.194444444 C103.542517,0.311111111 104.360265,0.466666667 105.178013,0.622222222 C105.956821,0.816666667 106.696689,1.01111111 107.397616,1.24444444 C108.098543,1.47777778 108.643709,1.71111111 109.033113,1.94444444 C109.578278,2.25555556 109.967682,2.56666667 110.201325,2.91666667 C110.434967,3.22777778 110.551788,3.65555556 110.551788,4.2 L110.551788,6.02777778 C110.551788,6.84444444 110.240265,7.27222222 109.656159,7.27222222 C109.344636,7.27222222 108.838411,7.11666667 108.176424,6.80555556 C105.956821,5.79444444 103.464636,5.28888889 100.699868,5.28888889 C98.4802649,5.28888889 96.727947,5.63888889 95.5207947,6.37777778 C94.3136424,7.11666667 93.690596,8.24444444 93.690596,9.83888889 C93.690596,10.9277778 94.08,11.8611111 94.8588079,12.6 C95.6376159,13.3388889 97.0784106,14.0777778 99.1422517,14.7388889 L104.671788,16.4888889 C107.475497,17.3833333 109.500397,18.6277778 110.70755,20.2222222 C111.914702,21.8166667 112.498808,23.6444444 112.498808,25.6666667 C112.498808,27.3388889 112.148344,28.8555556 111.486358,30.1777778 C110.78543,31.5 109.850861,32.6666667 108.643709,33.6 C107.436556,34.5722222 105.995762,35.2722222 104.321325,35.7777778 C102.569007,36.3222222 100.738808,36.5944444 98.7528477,36.5944444 Z" id="Shape" fill="#252F3E" fill-rule="nonzero"></path>
                <g id="Group" transform="translate(0.000000, 43.555556)" fill="#FF9900">
                    <path d="M106.112583,11.9388889 C93.3011921,21.3888889 74.6876821,26.4055556 58.6831788,26.4055556 C36.2535099,26.4055556 16.0434437,18.1222222 0.778807947,4.35555556 C-0.428344371,3.26666667 0.661986755,1.78888889 2.10278146,2.64444444 C18.6135099,12.2111111 38.9793377,18.0055556 60.0460927,18.0055556 C74.2593377,18.0055556 89.8744371,15.05 104.243444,8.98333333 C106.385166,8.01111111 108.215364,10.3833333 106.112583,11.9388889 Z" id="Path"></path>
                    <path d="M111.447417,5.87222222 C109.811921,3.77222222 100.621987,4.86111111 96.4553642,5.36666667 C95.2092715,5.52222222 95.0145695,4.43333333 96.1438411,3.61666667 C103.464636,-1.51666667 115.497219,-0.0388888889 116.899073,1.67222222 C118.300927,3.42222222 116.509669,15.4388889 109.656159,21.1944444 C108.604768,22.0888889 107.592318,21.6222222 108.059603,20.4555556 C109.617219,16.6055556 113.082914,7.93333333 111.447417,5.87222222 Z" id="Path"></path>
                </g>
            </g>
        </g>
    </g>
</svg>