<?xml version="1.0" encoding="UTF-8"?>
<svg width="300px" height="120px" viewBox="0 0 300 120" version="1.1" xmlns="http://www.w3.org/2000/svg" xmlns:xlink="http://www.w3.org/1999/xlink">
    <!-- Generator: Sketch 52.6 (67491) - http://www.bohemiancoding.com/sketch -->
    <title>Group 4</title>
    <desc>Created with Sketch.</desc>
    <g id="Page-1" stroke="none" stroke-width="1" fill="none" fill-rule="evenodd">
        <g id="Group-4" fill-rule="nonzero">
            <rect id="Rectangle-Copy-4" fill="#FFFFFF" x="0" y="0" width="300" height="120"></rect>
            <g id="oracle" transform="translate(16.000000, 43.000000)" fill="#EA1B22">
                <path d="M115.697484,22.6209701 L133.406422,22.6209701 L124.042648,7.5861194 L106.856625,34.7696269 L99.0354219,34.7696269 L119.938898,2.11619403 C120.847586,0.797164179 122.362414,-5.32907052e-15 124.042648,-5.32907052e-15 C125.667398,-5.32907052e-15 127.182227,0.769477612 128.063695,2.06134328 L149.049875,34.7696269 L141.228672,34.7696269 L137.538437,28.6952985 L119.609133,28.6952985 L115.698008,22.6209701 L115.697484,22.6209701 Z M196.943883,28.6947761 L196.943883,0.329626866 L190.306695,0.329626866 L190.306695,31.4712687 C190.306695,32.3232836 190.636984,33.1481343 191.270344,33.7802239 C191.903703,34.4123134 192.75743,34.7696269 193.693859,34.7696269 L223.961633,34.7696269 L227.872758,28.6952985 L196.943359,28.6952985 L196.943883,28.6947761 Z M87.1371641,23.6098507 C93.58225,23.6098507 98.8150547,18.4152239 98.8150547,11.9835821 C98.8150547,5.55141791 93.58225,0.329104478 87.1371641,0.329104478 L58.1005156,0.329104478 L58.1005156,34.7701493 L64.7356094,34.7701493 L64.7356094,6.40447761 L86.6969531,6.40447761 C89.7815703,6.40447761 92.2600469,8.90619403 92.2600469,11.9846269 C92.2600469,15.0625373 89.7815703,17.5637313 86.6969531,17.5637313 L67.9856328,17.5365672 L87.7982656,34.7701493 L97.4378906,34.7701493 L84.1080312,23.6108955 L87.1376875,23.6108955 L87.1371641,23.6098507 Z M17.2577344,34.7696269 C7.73117187,34.7701493 0,27.073806 0,17.5637313 C0,8.05313433 7.73117187,0.330149254 17.2577344,0.330149254 L37.3158594,0.330149254 C46.8445156,0.330149254 54.5699297,8.05313433 54.5699297,17.5637313 C54.5699297,27.073806 46.8445156,34.7696269 37.3153359,34.7696269 L17.2577344,34.7696269 Z M36.8698906,28.6952985 C43.0417422,28.6952985 48.0405703,23.7200746 48.0405703,17.563209 C48.0405703,11.4068657 43.0417422,6.40447761 36.8698906,6.40447761 L17.7016094,6.40447761 C11.5318516,6.40447761 6.53040625,11.4068657 6.53040625,17.5637313 C6.53040625,23.7200746 11.5318516,28.6952985 17.7010859,28.6952985 L36.8693672,28.6952985 L36.8698906,28.6952985 Z M162.903172,34.7696269 C153.374516,34.7696269 145.634969,27.073806 145.634969,17.5637313 C145.634969,8.05313433 153.374516,0.330149254 162.903172,0.330149254 L186.726906,0.330149254 L182.843,6.40447761 L163.343906,6.40447761 C157.174672,6.40447761 152.162234,11.4068657 152.162234,17.5637313 C152.162234,23.7200746 157.174672,28.6952985 163.343906,28.6952985 L187.277039,28.6952985 L183.365914,34.7696269 L162.903172,34.7696269 Z M244.067391,28.6952985 C238.97225,28.6952985 234.648133,25.2872388 233.326453,20.586791 L261.693625,20.586791 L265.604227,14.5124627 L233.326453,14.5124627 C234.648133,9.83970149 238.97225,6.40447761 244.067391,6.40447761 L263.539266,6.40447761 L267.476562,0.329104478 L243.626133,0.329104478 C234.096953,0.329104478 226.35793,8.05261194 226.35793,17.5626866 C226.35793,27.0732836 234.096953,34.7691045 243.626133,34.7691045 L264.089398,34.7691045 L268,28.6952985 L244.066867,28.6952985 L244.067391,28.6952985 Z" id="Shape"></path>
            </g>
        </g>
    </g>
</svg>