<?xml version="1.0" encoding="UTF-8"?>
<svg width="300px" height="120px" viewBox="0 0 300 120" version="1.1" xmlns="http://www.w3.org/2000/svg" xmlns:xlink="http://www.w3.org/1999/xlink">
    <!-- Generator: Sketch 52.6 (67491) - http://www.bohemiancoding.com/sketch -->
    <title>Group 12</title>
    <desc>Created with Sketch.</desc>
    <defs>
        <linearGradient x1="108.653774%" y1="13.8880407%" x2="46.9792453%" y2="78.802799%" id="linearGradient-1">
            <stop stop-color="#0052CC" offset="18%"></stop>
            <stop stop-color="#2684FF" offset="100%"></stop>
        </linearGradient>
    </defs>
    <g id="Page-1" stroke="none" stroke-width="1" fill="none" fill-rule="evenodd">
        <g id="Group-12">
            <rect id="Rectangle-Copy-2" fill="#FFFFFF" fill-rule="nonzero" x="0" y="0" width="300" height="120"></rect>
            <g id="bitbucket" transform="translate(20.000000, 41.000000)">
                <path d="M68.5176471,2.6973262 C75.4139037,2.6973262 78.7786096,6.08983957 78.7786096,11.5679144 C78.7786096,15.6834225 76.915508,18.1582888 73.1058824,19.1037433 C78.1112299,19.9379679 80.5860963,22.6631016 80.5860963,27.4459893 C80.5860963,32.8684492 76.915508,36.5668449 69.3518717,36.5668449 L55.3647059,36.5668449 L55.3647059,2.6973262 L68.5176471,2.6973262 Z M60.0085561,7.11871658 L60.0085561,17.2128342 L67.9058824,17.2128342 C72.2994652,17.2128342 74.1069519,15.2106952 74.1069519,11.9294118 C74.1069519,8.64812834 72.1604278,7.09090909 67.9058824,7.09090909 L60.0085561,7.11871658 Z M60.0085561,21.3561497 L60.0085561,31.8951872 L69.4909091,31.8951872 C73.940107,31.8951872 75.942246,30.2823529 75.942246,26.8898396 C75.942246,23.2748663 74.0235294,21.3283422 69.4074866,21.3283422 L60.0085561,21.3561497 Z M88.1497326,0.889839572 C89.7347594,0.778609626 91.1251337,1.97433155 91.2363636,3.55935829 L91.2363636,3.97647059 C91.2363636,5.67272727 89.8459893,7.0631016 88.1497326,7.0631016 C86.4534759,7.0631016 85.0631016,5.67272727 85.0631016,3.97647059 C84.9518717,2.39144385 86.1475936,1.00106952 87.7326203,0.889839572 C87.8716578,0.862032086 88.0106952,0.862032086 88.1497326,0.889839572 Z M85.8973262,10.7893048 L90.3465241,10.7893048 L90.3465241,36.5668449 L85.8973262,36.5668449 L85.8973262,10.7893048 Z M107.253476,32.228877 C108.19893,32.2010695 109.116578,32.0898396 110.034225,31.8673797 L110.034225,36.1497326 C109.060963,36.4278075 108.059893,36.5668449 107.058824,36.5668449 C101.525134,36.5668449 98.855615,33.313369 98.855615,28.5304813 L98.855615,14.9048128 L94.684492,14.9048128 L94.684492,10.7893048 L98.855615,10.7893048 L98.855615,5.31122995 L103.165775,5.31122995 L103.165775,10.7893048 L110.034225,10.7893048 L110.034225,14.9048128 L103.165775,14.9048128 L103.165775,28.4470588 C103.165775,30.6994652 104.500535,32.228877 107.253476,32.228877 Z M128.331551,37.0673797 C124.57754,37.0673797 121.685561,35.371123 120.128342,32.0064171 L120.128342,36.5390374 L115.679144,36.5390374 L115.679144,0 L120.15615,0 L120.15615,15.4053476 C121.796791,12.0128342 124.91123,10.2609626 128.859893,10.2609626 C135.728342,10.2609626 139.176471,16.0727273 139.176471,23.6641711 C139.148663,30.9497326 135.561497,37.0673797 128.331551,37.0673797 Z M127.664171,14.3764706 C123.687701,14.3764706 120.15615,16.9069519 120.15615,22.6352941 L120.15615,24.6930481 C120.15615,30.4213904 123.409626,32.9518717 127.191444,32.9518717 C132.196791,32.9518717 134.782888,29.6427807 134.782888,23.6641711 C134.727273,17.4909091 132.252406,14.3764706 127.664171,14.3764706 Z M143.792513,10.7893048 L148.241711,10.7893048 L148.241711,26.3893048 C148.241711,31.0331551 150.104813,33.0909091 154.331551,33.0909091 C158.447059,33.0909091 161.283422,30.3657754 161.283422,25.1379679 L161.283422,10.7893048 L165.73262,10.7893048 L165.73262,36.5668449 L161.283422,36.5668449 L161.283422,32.340107 C159.670588,35.315508 156.528342,37.1508021 153.135829,37.0951872 C147.212834,37.0951872 143.792513,32.9796791 143.792513,25.8887701 L143.792513,10.7893048 Z M190.620321,35.8994652 C189.063102,36.7336898 186.699465,37.0673797 184.335829,37.0673797 C175.159358,37.0673797 170.849198,31.5058824 170.849198,23.5807487 C170.849198,15.7946524 175.131551,10.2331551 184.335829,10.2331551 C186.449198,10.1775401 188.562567,10.5946524 190.481283,11.5122995 L190.481283,15.6278075 C188.645989,14.7657754 186.64385,14.3486631 184.613904,14.4042781 C177.912299,14.4042781 175.187166,18.631016 175.187166,23.6363636 C175.187166,28.6417112 177.967914,32.8684492 184.725134,32.8684492 C186.727273,32.9240642 188.701604,32.6181818 190.592513,31.9508021 L190.620321,35.8994652 Z M195.681283,36.5668449 L195.681283,0 L200.130481,0 L200.130481,22.857754 L211.225668,10.7893048 L217.009626,10.7893048 L204.885561,23.4417112 L217.51016,36.5668449 L211.475936,36.5668449 L200.130481,24.4983957 L200.130481,36.5668449 L195.681283,36.5668449 Z M232.192513,37.0673797 C222.543316,37.0673797 218.316578,31.5058824 218.316578,23.5807487 C218.316578,15.7946524 222.654545,10.2331551 230.496257,10.2331551 C238.449198,10.2331551 241.619251,15.7668449 241.619251,23.5807487 L241.619251,25.5828877 L222.793583,25.5828877 C223.405348,29.9764706 226.241711,32.8128342 232.331551,32.8128342 C235.00107,32.8128342 237.670588,32.340107 240.173262,31.4224599 L240.173262,35.5379679 C238.087701,36.6780749 234.834225,37.0673797 232.192513,37.0673797 Z M222.765775,21.828877 L237.142246,21.828877 C236.891979,17.0459893 234.722995,14.2930481 230.273797,14.2930481 C225.574332,14.2652406 223.210695,17.3240642 222.737968,21.8010695 L222.737968,21.828877 L222.765775,21.828877 Z M257.108021,32.228877 C258.053476,32.2010695 258.971123,32.0898396 259.88877,31.8673797 L259.88877,36.1497326 C258.915508,36.4278075 257.914439,36.5668449 256.913369,36.5668449 C251.379679,36.5668449 248.71016,33.313369 248.71016,28.5304813 L248.71016,14.9048128 L244.539037,14.9048128 L244.539037,10.7893048 L248.71016,10.7893048 L248.71016,5.31122995 L253.048128,5.31122995 L253.048128,10.7893048 L259.916578,10.7893048 L259.916578,14.9048128 L253.048128,14.9048128 L253.048128,28.4470588 C253.020321,30.6994652 254.35508,32.228877 257.108021,32.228877 Z" id="Shape" fill="#253858" fill-rule="nonzero"></path>
                <polygon id="Path" points="14.4877005 25.4994652 22.1347594 25.4994652 23.997861 14.7101604 12.457754 14.7101604"></polygon>
                <path d="M1.19572193,3.67058824 C0.528342246,3.67058824 0,4.17112299 0,4.83850267 C0,4.89411765 0,4.97754011 0.0278074866,5.03315508 L5.00534759,35.2320856 C5.14438503,35.9828877 5.78395722,36.5668449 6.56256684,36.5668449 L30.4213904,36.5668449 C31.0053476,36.5668449 31.5058824,36.1497326 31.5893048,35.5935829 L36.5668449,5.06096257 C36.6780749,4.42139037 36.2331551,3.80962567 35.5935829,3.72620321 C35.5379679,3.72620321 35.4545455,3.69839572 35.3989305,3.69839572 L1.19572193,3.67058824 Z M22.1347594,25.4994652 L14.515508,25.4994652 L12.457754,14.7101604 L23.997861,14.7101604 L22.1347594,25.4994652 Z" id="Shape" fill="#2684FF" fill-rule="nonzero"></path>
                <path d="M34.9818182,14.7101604 L23.997861,14.7101604 L22.1625668,25.4994652 L14.515508,25.4994652 L5.50588235,36.1775401 C5.78395722,36.4278075 6.14545455,36.5668449 6.53475936,36.5668449 L30.4213904,36.5668449 C31.0053476,36.5668449 31.5058824,36.1497326 31.5893048,35.5935829 L34.9818182,14.7101604 Z" id="Path" fill="url(#linearGradient-1)"></path>
            </g>
        </g>
    </g>
</svg>